<svg width="327" height="104" viewBox="0 0 327 104" fill="none" xmlns="http://www.w3.org/2000/svg">
<g clip-path="url(#clip0)">
<rect width="327" height="104" fill="#ED9716"/>
<path fill-rule="evenodd" clip-rule="evenodd" d="M258 -56.5217H170V-10.5217H193.701C193.616 -4.80555 194.123 1.15881 195.414 7.35532C196.213 11.2707 197.392 15.3674 199.776 19.2675C202.176 23.1525 206.008 26.8248 209.885 27.98C211.968 28.6022 213.831 28.4585 215.702 28.3143C217.205 28.1984 218.713 28.0821 220.344 28.3623C228.343 29.7664 235.774 39.7524 239.19 48.2735C242.761 57.1612 244.047 65.7492 245.337 74.3608C246.349 81.1227 247.364 87.8992 249.489 94.8467C252.113 103.424 257.248 113.115 265.344 118.554C270.776 122.196 276.682 123.262 281.413 122.412C286.093 121.572 289.298 120.47 297.726 117.573L297.726 117.573L298 117.478C308.041 114.027 313.665 124.593 318.492 133.66C321.357 139.043 323.941 143.897 327 144.978C332.045 146.75 332.233 143.939 332.294 143.033C332.305 142.874 332.311 142.773 332.34 142.767C332.388 142.756 332.5 143.019 332.804 143.732C333.052 144.315 333.427 145.199 334 146.478C336.458 151.964 337.646 152.357 340.107 153.17C341.674 153.687 343.757 154.375 347.013 156.656C352.565 160.526 358.739 161.393 363.349 160.024C367.96 158.655 371.217 155.34 373.925 151.662C379.917 143.431 383.432 132.987 384.307 121.258C384.487 118.876 384.463 116.408 384.272 113.876L385 113.907V-56.5217H297H258Z" fill="#ECB056"/>
<path d="M52.1265 -44.5889C50.6963 -27.6486 61.546 -11.0037 76.9574 -2.58282C92.3688 5.83809 111.405 6.67526 128.518 2.21858C133.474 0.938205 138.48 -0.883863 142.055 -4.40489C145.631 -7.92591 147.406 -13.5399 145.064 -17.898C141.217 -25.0632 128.814 -23.7336 124.203 -16.987C119.592 -10.2404 121.071 -1.17934 124.499 6.20743C130.367 18.8388 141.562 29.0818 155.001 34.1048C168.415 39.1278 183.9 38.8569 197.117 33.3907C211.419 27.4567 222.392 16.1549 233.932 6.10894C245.472 -3.93706 259.108 -13.3675 274.668 -13.9338C296.244 -14.7217 315.625 3.59744 318.263 24.1327C320.902 44.6925 308.819 65.4493 290.917 77.0219C287.416 79.2872 283.421 81.3062 279.229 80.9369C275.037 80.5676 270.969 76.8249 271.906 72.8853C272.374 70.9401 273.879 69.3889 275.407 68.0593C280.512 63.6272 287.441 60.1555 294.098 61.7805C303.394 64.0458 307.414 74.8797 306.773 84.0393C305.885 96.9169 298.956 108.76 290.424 118.708C285.32 124.667 279.599 130.133 275.185 136.584C270.772 143.035 267.739 150.742 268.848 158.35C270.87 172.04 284.901 180.609 297.526 187.306M173.47 -49.735C170.93 -40.9201 177.218 -31.3173 185.676 -27.7717C194.134 -24.226 203.948 -25.6049 212.504 -28.8797C225.425 -33.7796 236.94 -43.0869 243.08 -55.4474L173.47 -49.735Z" stroke="#FFEFC6" stroke-width="0.5" stroke-miterlimit="10"/>
<circle cx="279" cy="27.4783" r="4.5" stroke="#B03700"/>
<ellipse cx="290" cy="15.4783" rx="2" ry="2" fill="#B03700"/>
<path d="M217.442 40.1307L222.406 54.2849L201.647 40.1307H217.442Z" fill="#BE9528"/>
<path d="M202.207 42.0744H254.76C262.897 42.0744 269.531 35.4295 269.531 27.279V8.74576C269.531 0.595292 262.897 -6.04968 254.76 -6.04968H202.207C194.07 -6.04968 187.437 0.595292 187.437 8.74576V27.279C187.437 35.4295 194.019 42.0744 202.207 42.0744Z" fill="#BE9528"/>
<path d="M197.829 40.2676H251.59C259.913 40.2676 266.7 33.4813 266.7 25.1574V6.22976C266.7 -2.09414 259.913 -8.88051 251.59 -8.88051H197.829C189.505 -8.88051 182.719 -2.09414 182.719 6.22976V25.1574C182.719 33.4813 189.452 40.2676 197.829 40.2676Z" fill="#EFEDE6"/>
<path d="M213.386 39.2434L218.576 53.8692L196.873 39.2434H213.386Z" fill="#EFEDE6"/>
<path opacity="0.85" d="M195.39 6.75963H252.332V2.88928H195.39V6.75963Z" fill="#FE7C40"/>
<path opacity="0.85" d="M195.39 17.3105H252.332V13.3872H195.39V17.3105Z" fill="#D24200"/>
<path opacity="0.85" d="M194.985 27.9203H243.109V24.1458H194.985V27.9203Z" fill="#FE5000"/>
<path d="M286.993 100.276H331.693C339.659 100.276 346.151 93.7979 346.151 85.8476V55.4451C346.151 47.4948 339.659 41.0168 331.693 41.0168H286.919C278.952 41.0168 272.461 47.4948 272.461 55.4451V85.8476C272.535 93.7979 278.952 100.276 286.993 100.276Z" fill="#BE9528"/>
<path d="M297.323 93.2396L282.78 113.98L286.554 93.2396H297.323Z" fill="#BE9528"/>
<path d="M284.381 97.7375H329.081C337.047 97.7375 343.539 91.2594 343.539 83.3092V52.9067C343.539 44.9564 337.047 38.4784 329.081 38.4784H284.307C276.34 38.4784 269.849 44.9564 269.849 52.9067V83.3092C269.923 91.2594 276.34 97.7375 284.381 97.7375Z" fill="#EFEDE6"/>
<path d="M290.724 81.8369C294.486 86.2537 300.092 89.051 306.288 89.1246L306.362 81.8369C302.379 81.7633 298.838 79.9965 296.404 77.1992L290.724 81.8369Z" fill="#D24200"/>
<path d="M306.657 47.0176C313.517 47.0176 319.566 50.2566 323.475 55.2623C326.204 58.7958 327.827 63.2862 327.827 68.0711C327.827 68.1447 327.827 68.292 327.827 68.3656L320.525 68.5128C320.525 68.3656 320.525 68.2184 320.525 67.9975C320.525 64.9057 319.492 62.0348 317.796 59.7528C315.288 56.3665 311.231 54.2317 306.731 54.2317C306.657 54.2317 306.657 54.2317 306.584 54.2317L306.657 47.0176Z" fill="#D24200"/>
<path d="M289.913 55.4095L295.445 60.1944C293.896 62.4028 292.937 65.1265 292.937 68.0711C292.937 68.4392 292.937 68.8808 293.011 69.2489C293.306 72.2671 294.486 75.0644 296.404 77.1992L290.724 81.7632C287.847 78.377 286.003 74.1074 285.634 69.3961C285.634 68.9544 285.561 68.5128 285.561 67.9975C285.634 63.3598 287.183 58.943 289.913 55.4095Z" fill="#FE5000"/>
<path d="M306.362 81.8369C306.51 81.8369 306.584 81.8369 306.731 81.8369C310.345 81.8369 313.665 80.4382 316.173 78.1562C318.754 75.7269 320.451 72.3407 320.525 68.5864L327.827 68.4392C327.754 74.1074 325.393 79.2604 321.705 83.0147C317.869 86.8426 312.632 89.1982 306.731 89.1982C306.584 89.1982 306.436 89.1982 306.288 89.1982L306.362 81.8369Z" fill="#FE5000"/>
<path d="M289.913 55.4096L295.445 60.1945C297.953 56.661 302.01 54.379 306.657 54.3054V47.0176C299.797 47.0912 293.749 50.3302 289.913 55.4096Z" fill="#FE7C40"/>
<path d="M296.404 91.7012L281.861 112.441L285.634 91.7012H296.404Z" fill="#EFEDE6"/>
<path d="M251.614 99.1335H232.354C228.921 99.1335 226.125 97.0276 226.125 94.4431V84.5598C226.125 81.9753 228.921 79.8694 232.354 79.8694H251.646C255.078 79.8694 257.875 81.9753 257.875 84.5598V94.4431C257.843 97.0276 255.078 99.1335 251.614 99.1335Z" fill="#BE9528"/>
<path d="M244.891 98.2547L236.631 104.014L238.774 98.2547H244.891Z" fill="#BE9528"/>
<path d="M252.739 98.1888H233.479C230.047 98.1888 227.25 96.0667 227.25 93.4622V83.5024C227.25 80.8979 230.047 78.7757 233.479 78.7757H252.771C256.203 78.7757 259 80.8979 259 83.5024V93.4622C258.968 96.0667 256.203 98.1888 252.739 98.1888Z" fill="#EFEDE6"/>
<path opacity="0.85" d="M254 83.7332H232V86.4783H254V83.7332Z" fill="#FE5000"/>
<path opacity="0.85" d="M248.949 89.6058H232V92.3509H248.949V89.6058Z" fill="#B91E44"/>
<path d="M247.005 97.7237L239.267 103.119L241.275 97.7237H247.005Z" fill="#EFEDE6"/>
<g clip-path="url(#clip1)">
<circle cx="256.413" cy="57.6245" r="3" fill="#B03700"/>
</g>
</g>
<defs>
<clipPath id="clip0">
<rect width="327" height="104" fill="white"/>
</clipPath>
<clipPath id="clip1">
<rect width="262.27" height="114.016" fill="white" transform="matrix(0.680354 0.732884 0.732884 -0.680354 163.487 -8.73517)"/>
</clipPath>
</defs>
</svg>
