<svg width="327" height="104" viewBox="0 0 327 104" fill="none" xmlns="http://www.w3.org/2000/svg">
<g clip-path="url(#clip0)">
<rect width="327" height="104" fill="#436436"/>
<path d="M276 91.8346L273.828 91.2253L272.766 87L272.019 91.3552L270 91.8346L272.306 92.6138L273.005 96L273.694 92.6138L276 91.8346Z" fill="#D3FEE6" fill-opacity="0.3"/>
<g opacity="0.7">
<path d="M291.069 96.3931C290.954 95.9721 290.648 96.0103 290.533 96.0103L290.38 96.0486L290.189 96.4313L290.227 96.5079C290.303 96.661 290.418 97.082 290.801 97.0437C290.878 97.0437 291.069 96.9672 291.145 96.7375L291.184 96.6227L291.069 96.3931Z" fill="#3E5403"/>
<path d="M308.137 75.9544L308.176 75.9927L308.405 76.0692L308.712 76.031L308.788 75.8779C308.865 75.8396 308.941 75.763 308.98 75.6865C309.056 75.61 309.133 75.4951 309.133 75.3803V75.2272L308.903 75.0358C308.903 75.0741 308.941 75.0741 308.941 75.0741C308.941 75.0741 308.941 75.0358 308.903 74.9976C308.788 74.6148 308.559 74.5765 308.405 74.5765C308.214 74.6148 308.099 74.7679 308.061 74.8445L307.984 74.9593V74.9976L307.946 75.0741V75.1124L307.831 75.2655L307.87 75.6482C307.984 75.8013 308.099 75.9161 308.137 75.9544Z" fill="#3E5403"/>
<path d="M300.33 62.0231L300.253 61.9466C300.253 61.6787 300.062 61.5638 299.985 61.5256L299.909 61.4873L299.756 61.5256L299.526 61.6404H299.488C299.449 61.6404 299.411 61.6404 299.411 61.6787V61.7169L299.373 61.6787C299.258 61.7552 299.182 61.87 299.143 61.9849V62.0231C298.914 62.138 298.914 62.3293 298.875 62.3676V62.4442L298.914 62.5207C298.875 62.5973 298.875 62.6738 298.875 62.7503L298.837 62.7886L298.799 62.98L298.875 63.4393L299.22 63.6689L299.335 63.6307C299.373 63.6307 299.373 63.6307 299.411 63.6307C299.488 63.6307 299.526 63.6307 299.603 63.6307C299.717 63.6307 299.794 63.5924 299.909 63.5158L299.947 63.4776L300.062 63.2479V63.1714C300.062 63.0948 300.062 63.0183 300.062 62.98C300.177 62.9417 300.292 62.8269 300.33 62.7121C300.368 62.6355 300.368 62.4442 300.215 62.2528L300.292 62.138L300.33 62.0231Z" fill="#3E5403"/>
<path d="M310.129 63.1326L310.206 63.0943L310.129 63.1709L310.282 63.3623H310.359C310.435 63.3623 310.474 63.3623 310.55 63.3623C310.627 63.3623 310.741 63.324 310.78 63.2474H310.818L310.895 63.2092C310.933 63.2092 310.971 63.1709 310.971 63.1709C311.048 63.1709 311.124 63.0943 311.162 63.0561L311.201 63.0178V62.9412L311.43 62.7116V62.6733V62.6351C311.469 62.5585 311.583 62.3671 311.469 62.1375C311.392 62.0227 311.277 61.9078 311.124 61.9078H311.009L310.971 61.8313H310.856C310.818 61.8313 310.818 61.8313 310.78 61.8313C310.703 61.7165 310.55 61.6782 310.435 61.7165C310.359 61.7165 310.244 61.7547 310.129 61.9461L309.938 61.9844L309.976 62.2906C309.938 62.3671 309.899 62.482 309.976 62.6351L309.861 62.7499L310.129 63.1326Z" fill="#3E5403"/>
<path d="M298.417 77.1413L298.455 77.0265L298.111 76.7968L297.958 76.7203L297.881 76.7586C297.766 76.7203 297.651 76.6437 297.422 76.682C297.383 76.682 297.307 76.7203 297.269 76.7203H297.23L297.116 76.7968L297.077 76.8351C296.924 76.8734 296.733 76.9882 296.733 77.2561L296.656 77.3709L296.695 77.4858C296.771 77.6389 296.848 77.8302 296.924 77.9451C296.962 77.9833 297.001 78.0216 297.001 78.0599L297.039 78.213L297.46 78.2895V78.213V78.3278H297.498C297.537 78.3278 297.575 78.3278 297.651 78.3278C297.498 78.3661 297.383 78.4426 297.345 78.4809H297.307L297.077 78.7488V78.8254C297.077 79.2464 297.345 79.4377 297.613 79.3995H297.766L297.804 79.2846H297.843H297.881L298.072 79.1698L298.111 79.1315C298.187 79.0167 298.187 78.9019 298.149 78.7871C298.187 78.634 298.111 78.5192 298.072 78.4809L298.034 78.4426L297.804 78.3278H297.728C297.766 78.3278 297.804 78.3278 297.843 78.2895C297.958 78.2512 298.034 78.1747 298.072 78.0981C298.187 78.0981 298.302 78.0216 298.379 77.9451H298.417L298.455 77.8685V77.8302C298.57 77.4858 298.455 77.2561 298.417 77.1413Z" fill="#3E5403"/>
<path d="M303.277 91.4557L302.971 91.3026H302.933C302.818 91.226 302.665 91.1112 302.474 91.1495C302.359 91.1495 302.244 91.226 302.167 91.3791H302.129L302.091 91.4174C302.014 91.4939 302.014 91.6088 301.976 91.6853C301.976 91.7236 301.938 91.7619 301.938 91.8001L301.9 91.8384L301.938 92.2594L302.053 92.336C302.167 92.3742 302.244 92.4125 302.359 92.4125C302.55 92.5273 302.78 92.4891 302.895 92.4891H302.933L303.048 92.5273L303.43 92.2594V92.1446C303.43 91.9149 303.354 91.7236 303.316 91.6088L303.277 91.4557Z" fill="#3E5403"/>
<path d="M292.14 83.9538C292.063 83.8773 291.91 83.6859 291.604 83.7242L291.451 83.7624L291.26 84.1069L291.298 84.2217C291.336 84.3366 291.336 84.4514 291.374 84.5279C291.374 84.681 291.413 84.8341 291.489 84.9872L291.527 85.0638L291.795 85.2169H291.872C292.178 85.1786 292.331 84.9489 292.331 84.5279C292.331 84.4897 292.331 84.4897 292.331 84.4514L292.369 84.3748L292.14 83.9538Z" fill="#3E5403"/>
<path d="M327.887 90.7669C327.963 90.7669 328.04 90.7287 328.116 90.6521L328.155 90.6138L328.231 90.4225V90.3842C328.231 90.3459 328.231 90.2694 328.231 90.2311C328.231 90.0397 328.27 89.8101 328.155 89.5804C328.04 89.3508 327.849 89.3125 327.734 89.2742L327.695 89.1594L327.504 89.1977C327.428 89.1594 327.351 89.1211 327.313 89.1211L327.198 89.0829L327.083 89.1977L327.007 89.236C326.7 89.3508 326.662 89.5804 326.662 89.657V89.7718L326.739 89.8483C326.7 90.0014 326.624 90.1928 326.739 90.4225L326.777 90.5373L326.968 90.6138C327.007 90.6904 327.045 90.7669 327.16 90.8435C327.313 90.92 327.428 90.9583 327.542 90.92C327.619 90.92 327.695 90.8817 327.772 90.8052C327.81 90.7669 327.849 90.7669 327.887 90.7669Z" fill="#3E5403"/>
<path d="M317.516 82.2316C317.478 82.1168 317.401 81.9254 317.171 81.8106L317.018 81.7341L316.635 82.1168L316.674 82.2316V82.2699C316.674 82.3847 316.674 82.5761 316.865 82.6909C316.98 82.7675 317.095 82.8058 317.21 82.7675C317.248 82.7675 317.324 82.7292 317.363 82.7292L317.439 82.6909L317.554 82.3082L317.516 82.2316C317.516 82.2316 317.516 82.2699 317.516 82.2316Z" fill="#3E5403"/>
<path d="M316.673 70.5578C316.405 70.4047 316.138 70.3281 315.87 70.3664C315.64 70.4047 315.41 70.5195 315.257 70.7109L315.142 70.864L315.334 71.2085H315.295C315.295 71.1702 315.257 71.1702 315.257 71.1702C315.257 71.2084 315.257 71.2085 315.295 71.2467C315.334 71.3998 315.41 71.6677 315.64 71.8208L315.678 71.8591L315.831 71.8974H315.87C315.984 71.8974 316.023 71.8974 316.099 71.8974C316.176 71.8974 316.214 71.8974 316.291 71.8974C316.405 71.8974 316.482 71.8591 316.597 71.8208L316.673 71.7826L316.826 71.4764L316.788 71.3998C316.75 71.2467 316.75 71.1319 316.788 71.0171V70.9405L316.673 70.6726V70.5578Z" fill="#3E5403"/>
<path d="M314.071 70.7112C314.071 70.7112 314.033 70.7112 314.033 70.6729C313.956 70.6346 313.918 70.6346 313.841 70.5964L313.727 70.5581L313.459 70.826C313.306 70.9026 313.229 71.0556 313.191 71.2087L313.114 71.247L313.076 71.3236C312.961 71.5532 313.114 71.7446 313.153 71.8211L313.191 71.8977L313.459 72.0125H313.535C313.65 71.9742 313.765 71.9359 313.841 71.8594H314.071L314.148 71.7828C314.301 71.6298 314.339 71.4384 314.339 71.2853C314.339 71.247 314.339 71.2087 314.339 71.2087L314.377 71.0939L314.186 70.7112H314.071Z" fill="#3E5403"/>
<path d="M314.454 97.1201L314.53 97.1583L314.798 97.0818L314.837 97.0435C314.875 97.0052 314.913 96.9287 314.951 96.8904H315.028L315.296 96.3546L315.181 96.2398C315.181 96.2398 315.181 96.2015 315.143 96.1632C315.143 96.0484 315.104 95.8953 314.99 95.7805C314.913 95.6657 314.798 95.6274 314.683 95.5891L314.53 95.3595H314.377V95.2829L314.033 95.0533H313.995L313.918 95.015L313.65 95.0915C313.612 95.0533 313.497 95.015 313.382 95.015C313.267 94.9384 313.152 94.9002 313.038 94.8619H312.961L312.731 94.9384L312.693 94.9767C312.617 95.0533 312.617 95.1298 312.578 95.2064L312.425 95.3595V95.4743C312.425 95.5891 312.464 95.7039 312.464 95.7805C312.425 95.857 312.387 95.9718 312.425 96.0867C312.425 96.2015 312.502 96.3163 312.617 96.3929C312.693 96.4694 312.808 96.5077 312.923 96.4694C312.999 96.4694 313.114 96.4311 313.152 96.3546C313.152 96.3929 313.191 96.3929 313.191 96.4311V96.5077L313.306 96.7373L313.344 96.7756C313.382 96.7756 313.42 96.8139 313.497 96.8522L313.535 96.8904H313.573C313.803 97.0818 314.033 97.1201 314.224 97.1201C314.377 97.0818 314.416 97.0818 314.454 97.1201Z" fill="#3E5403"/>
<path d="M320.385 89.9246L320.538 89.8864L320.576 89.8481C320.768 89.695 320.806 89.4653 320.729 89.2357C320.653 89.0443 320.423 88.853 320.155 88.8912C320.002 88.9295 319.849 89.0443 319.773 89.1974L319.734 89.3122L319.887 89.5419C320.002 89.8098 320.194 89.8864 320.347 89.8864H320.385V89.9246Z" fill="#3E5403"/>
<path d="M323.295 81.5811L323.257 81.5428C323.295 81.3898 323.219 81.2367 323.181 81.1601L323.142 81.1218L322.951 81.007H322.913C322.874 80.9687 322.76 80.9305 322.606 80.9687C322.568 80.9687 322.53 80.9687 322.492 81.007L322.377 81.0453L322.3 81.2367C322.262 81.2367 322.262 81.2367 322.224 81.2367C322.185 81.2367 322.109 81.2749 322.071 81.2749L321.994 81.3132L321.841 81.6194V81.6959C321.918 82.0021 322.109 82.1552 322.262 82.1935L322.415 82.2318L322.645 82.0021H322.683C322.76 82.0021 322.798 82.0404 322.874 82.0021C323.066 81.9639 323.219 81.849 323.257 81.6577L323.295 81.5811Z" fill="#3E5403"/>
<path d="M326.511 92.4887C326.434 92.4121 326.281 92.2973 326.09 92.3356C325.975 92.3356 325.86 92.4121 325.745 92.5652L325.669 92.68L325.707 92.7949C325.554 92.9097 325.401 93.0245 325.248 93.1011L325.133 93.1393L324.98 93.5221L325.018 93.5986C325.018 93.5986 325.018 93.6369 325.018 93.6752C325.018 93.7517 324.98 93.8665 325.056 94.0196C325.094 94.1345 325.133 94.2493 325.171 94.3258L325.209 94.4024L325.401 94.5555H325.439C325.477 94.5555 325.477 94.5555 325.515 94.5555C325.592 94.5937 325.707 94.632 325.745 94.632H325.86L325.975 94.5172C326.013 94.5172 326.051 94.5172 326.09 94.5172C326.128 94.5172 326.166 94.5172 326.204 94.4789L326.281 94.4406L326.357 94.3258C326.396 94.3258 326.396 94.3258 326.434 94.3258L326.587 94.2875L326.778 93.9431L326.74 93.8665C326.74 93.79 326.702 93.6752 326.702 93.5986C326.702 93.4838 326.702 93.3307 326.625 93.1776C326.702 93.1011 326.74 93.0245 326.778 92.9097L326.817 92.7566L326.511 92.4887Z" fill="#3E5403"/>
<path d="M321.19 51.2679L321.114 51.1148C321.114 51.0383 321.152 50.8852 321.037 50.7321C320.961 50.6556 320.846 50.5407 320.616 50.579H320.54L320.348 50.7704H320.31C320.234 50.7704 320.042 50.8086 319.927 51L319.851 51.0766L319.927 51.4976L320.004 51.5359C320.234 51.6507 320.425 51.7272 320.616 51.689C320.693 51.689 320.731 51.6507 320.808 51.6507L320.884 51.842L320.961 51.5359C320.999 51.4976 321.037 51.4593 321.037 51.421L321.19 51.2679Z" fill="#3E5403"/>
<path d="M322.607 94.4794H322.492L322.262 94.7856V94.8621C322.262 94.977 322.301 95.2449 322.492 95.398C322.607 95.4745 322.722 95.5128 322.875 95.5128C322.913 95.5128 322.951 95.5128 322.951 95.4745L323.028 95.4363L323.219 95.1301V95.0535C323.143 94.4794 322.798 94.4411 322.607 94.4794Z" fill="#3E5403"/>
<path d="M322.453 102.823C322.262 102.861 322.147 102.976 322.071 103.167L322.032 103.282L322.262 103.627H322.3C322.338 103.665 322.492 103.818 322.683 103.818H322.798L323.066 103.55V103.435C323.066 103.282 322.989 103.091 322.874 102.938C322.759 102.861 322.606 102.823 322.453 102.823Z" fill="#3E5403"/>
<path d="M246.02 96.3931C245.905 95.9721 245.599 96.0103 245.484 96.0103L245.331 96.0486L245.14 96.4313L245.178 96.5079C245.255 96.661 245.37 97.082 245.752 97.0437C245.829 97.0437 246.02 96.9672 246.097 96.7375L246.135 96.6227L246.02 96.3931Z" fill="#3E5403"/>
<path d="M289.156 48.6271L288.964 48.5888L288.888 48.5505L288.811 48.5888C288.428 48.6653 288.39 48.9333 288.39 49.0481V49.1246C288.352 49.1629 288.352 49.2394 288.352 49.316V49.4308L288.658 49.6987L289.156 49.6222L289.385 49.3543V49.2777C289.385 49.0481 289.309 48.8567 289.194 48.7419L289.156 48.6271Z" fill="#3E5403"/>
<path d="M289.04 53.8319L288.58 53.7553H288.542C288.504 53.7553 288.504 53.7553 288.466 53.7553C288.389 53.7553 288.351 53.7553 288.312 53.7553H288.236L288.006 53.9467L287.968 54.0232C287.93 54.1763 287.968 54.3294 288.083 54.4442V54.4825L288.351 54.6739H288.427C288.466 54.6739 288.504 54.6739 288.542 54.6739C288.733 54.6356 288.887 54.5591 288.963 54.406C289.001 54.3294 289.078 54.1763 289.001 53.9467L289.04 53.8319Z" fill="#3E5403"/>
<path d="M299.296 63.3623C299.334 63.3623 299.373 63.3623 299.411 63.324L299.488 63.2858L299.717 63.0179V62.9413C299.717 62.7117 299.564 62.4437 299.143 62.4437C299.143 62.4437 299.143 62.4437 299.105 62.4437L299.028 62.4055L298.646 62.6734V62.7882C298.646 63.0178 298.722 63.1327 298.837 63.2092C298.99 63.4006 299.22 63.3623 299.296 63.3623Z" fill="#3E5403"/>
<path d="M300.829 71.7445L300.752 71.3235L300.484 71.1704L300.369 71.0938H300.331C300.331 71.0555 300.293 71.0555 300.293 71.0173L300.254 70.9407C300.063 70.7876 299.833 70.8259 299.719 70.8259L299.451 70.8642L299.221 71.1704L299.144 71.2086L298.953 71.4383V71.5148C298.953 71.821 299.068 71.9741 299.144 72.0507V72.1655L299.412 72.4717C299.412 72.4717 299.527 72.4717 299.566 72.4717H299.642C299.719 72.4717 299.757 72.5099 299.833 72.4717C300.025 72.4334 300.14 72.3186 300.216 72.1655H300.254L300.675 71.821V71.7827L300.829 71.7445Z" fill="#3E5403"/>
<path d="M298.455 59.4203L298.57 59.4586H298.608C298.646 59.4586 298.685 59.4586 298.723 59.4586C298.838 59.4586 298.914 59.4203 298.952 59.382C298.991 59.382 299.029 59.382 299.106 59.382C299.297 59.3437 299.45 59.1906 299.45 58.961V58.8844L299.259 58.6931L299.106 58.8079L299.182 58.6165L299.029 58.54H298.991C298.838 58.3103 298.646 58.3103 298.531 58.3103C298.493 58.3103 298.455 58.3103 298.417 58.3486H298.378L298.264 58.4252L298.225 58.4634C298.11 58.6165 298.11 58.7313 298.11 58.8079C298.11 58.8462 298.149 58.9227 298.149 58.961C298.149 59.0375 298.149 59.0758 298.149 59.1141C298.187 59.1906 298.225 59.3437 298.455 59.4203Z" fill="#3E5403"/>
<path d="M292.292 78.5953L292.063 78.2508L291.833 78.2126C291.642 78.1743 291.45 78.136 291.182 78.1743C291.106 78.1743 291.029 78.2126 290.953 78.2126L290.8 78.2508L290.761 78.4422C290.685 78.4805 290.57 78.557 290.494 78.7101C290.417 78.9398 290.455 79.246 290.647 79.4373C290.8 79.7435 291.068 79.8966 291.182 79.9349L291.297 79.9732L291.565 79.8583H291.603C291.68 79.8583 291.757 79.8583 291.871 79.8583C291.91 79.8583 291.948 79.8583 291.986 79.8201H292.024L292.101 79.7818C292.178 79.7052 292.254 79.5904 292.254 79.5139C292.369 79.3991 292.407 79.246 292.407 79.1311V79.0929L292.445 79.0163L292.369 78.7101C292.331 78.6718 292.292 78.5953 292.292 78.5953Z" fill="#3E5403"/>
<path d="M284.332 100.374V100.488L284.676 100.756H284.791C284.791 100.756 284.829 100.756 284.829 100.795L284.944 100.871L285.403 100.565L285.327 100.067L285.021 99.8378H284.906C284.868 99.8378 284.829 99.8378 284.791 99.8378C284.447 99.876 284.332 100.144 284.332 100.374Z" fill="#3E5403"/>
<path d="M288.618 101.062L288.81 100.986L288.848 100.948C289.001 100.756 289.001 100.488 288.886 100.297C288.771 100.106 288.618 100.029 288.389 100.029H288.274L288.044 100.412L288.082 100.488C288.082 100.488 288.082 100.488 288.082 100.527C288.082 100.641 288.082 100.833 288.236 100.948C288.312 101.024 288.465 101.062 288.58 101.062H288.618Z" fill="#3E5403"/>
<path d="M282.879 66.9221C282.917 67.4197 283.223 67.4579 283.415 67.4579H283.491L283.529 67.4197C283.568 67.4197 283.644 67.4579 283.683 67.4579L283.797 67.4962C283.836 67.4962 283.836 67.4962 283.874 67.4962H283.912L284.142 67.4197L284.18 67.3814C284.218 67.3431 284.257 67.3431 284.295 67.3048C284.333 67.2666 284.41 67.19 284.448 67.1517H284.486L284.639 66.9604V66.9221C284.639 66.8838 284.678 66.8456 284.716 66.8073C284.793 66.6925 284.907 66.5394 284.793 66.3097V66.2714C284.754 65.8887 284.486 65.7739 284.333 65.7356L284.218 65.6973L284.18 65.7356C284.104 65.6973 284.027 65.6973 283.95 65.6591H283.912L283.874 65.6208H283.568H283.453L283.376 65.6973C283.338 65.7356 283.262 65.7356 283.185 65.7739C283.147 65.7739 283.108 65.8122 283.07 65.8122L282.879 65.8887V66.0035C282.841 66.0418 282.802 66.0801 282.764 66.1183C282.687 66.1949 282.687 66.3097 282.687 66.3863C282.649 66.4628 282.573 66.5776 282.573 66.7307V66.8456L282.879 66.9221Z" fill="#3E5403"/>
<path d="M285.901 83.5328V83.4563L285.71 83.2266H285.672C285.633 83.1501 285.595 83.1118 285.557 83.0352L285.518 82.997L285.327 82.9204H285.289C285.136 82.9587 284.983 83.0735 284.944 83.2266C284.868 83.5328 284.791 83.8007 285.212 84.0686L285.365 84.1835L285.518 84.0304H285.557C285.71 83.9921 285.901 83.839 285.901 83.5328Z" fill="#3E5403"/>
<path d="M283.91 76.2611L284.178 76.0314V75.9549C284.178 75.9549 284.178 75.9166 284.216 75.8783C284.254 75.8401 284.254 75.7635 284.293 75.687V75.5721L284.063 75.2277H283.833H283.795C283.489 75.266 283.336 75.5722 283.336 75.8018C283.336 76.0314 283.527 76.2228 283.795 76.2228H283.91V76.2611Z" fill="#3E5403"/>
<path d="M307.219 65.2763V65.3528L307.372 65.5442L307.448 65.5825C307.525 65.6207 307.64 65.6207 307.716 65.6207C307.984 65.5825 308.137 65.3528 308.099 65.0849C308.099 65.0466 308.099 65.0083 308.061 64.9701V64.8935C308.061 64.817 308.099 64.6639 307.984 64.5108C307.869 64.3577 307.678 64.3194 307.64 64.3194H307.525L307.372 64.4725C307.333 64.4725 307.333 64.4725 307.295 64.4725H307.219L306.989 64.6639L306.951 64.7404C306.912 64.8935 306.951 65.0849 307.104 65.1997C307.142 65.238 307.18 65.238 307.219 65.2763Z" fill="#3E5403"/>
<path d="M263.09 75.9544L263.128 75.9927L263.358 76.0692L263.664 76.031L263.74 75.8779C263.817 75.8396 263.894 75.763 263.932 75.6865C264.008 75.61 264.085 75.4951 264.085 75.3803V75.2272L263.855 75.0358C263.855 75.0741 263.894 75.0741 263.894 75.0741C263.894 75.0741 263.894 75.0358 263.855 74.9976C263.74 74.6148 263.511 74.5765 263.358 74.5765C263.166 74.6148 263.051 74.7679 263.013 74.8445L262.937 74.9593V74.9976L262.898 75.0741V75.1124L262.784 75.2655L262.822 75.6482C262.937 75.8013 263.051 75.9161 263.09 75.9544Z" fill="#3E5403"/>
<path d="M255.283 62.0231L255.206 61.9466C255.206 61.6787 255.015 61.5638 254.939 61.5256L254.862 61.4873L254.709 61.5256L254.479 61.6404H254.441C254.403 61.6404 254.364 61.6404 254.364 61.6787V61.7169L254.326 61.6787C254.211 61.7552 254.135 61.87 254.097 61.9849V62.0231C253.867 62.138 253.829 62.3293 253.829 62.3676V62.4442L253.867 62.5207C253.829 62.5973 253.829 62.6738 253.829 62.7503L253.79 62.7886L253.752 62.98L253.829 63.4393L254.173 63.6689L254.288 63.6307C254.326 63.6307 254.326 63.6307 254.364 63.6307C254.403 63.6307 254.479 63.6307 254.556 63.6307C254.671 63.6307 254.747 63.5924 254.862 63.5158L254.9 63.4776L255.015 63.2479V63.1714C255.015 63.0948 255.015 63.0183 255.015 62.98C255.13 62.9417 255.245 62.8269 255.283 62.7121C255.321 62.6355 255.321 62.4442 255.168 62.2528L255.245 62.138L255.283 62.0231Z" fill="#3E5403"/>
<path d="M265.081 63.1326L265.158 63.0943L265.081 63.1709L265.234 63.3623H265.311C265.388 63.3623 265.426 63.3623 265.502 63.3623C265.579 63.3623 265.694 63.324 265.732 63.2474H265.77L265.847 63.2092C265.885 63.2092 265.923 63.1709 265.923 63.1709C266 63.1709 266.077 63.0943 266.115 63.0561L266.153 63.0178V62.9412L266.383 62.7116V62.6733V62.6351C266.421 62.5585 266.536 62.3671 266.421 62.1375C266.344 62.0227 266.23 61.9078 266.077 61.9078H265.962L265.923 61.8313H265.809C265.77 61.8313 265.77 61.8313 265.732 61.8313C265.655 61.7165 265.502 61.6782 265.388 61.7165C265.311 61.7165 265.196 61.7547 265.081 61.9461L264.89 61.9844L264.928 62.2906C264.89 62.3671 264.852 62.482 264.928 62.6351L264.813 62.7499L265.081 63.1326Z" fill="#3E5403"/>
<path d="M253.369 77.1413L253.407 77.0265L253.063 76.7968L252.91 76.7203L252.833 76.7586C252.718 76.7203 252.604 76.6437 252.374 76.682C252.336 76.682 252.259 76.7203 252.221 76.7203H252.183L252.068 76.7968L252.03 76.8351C251.876 76.8734 251.685 76.9882 251.685 77.2561L251.609 77.3709L251.647 77.4858C251.723 77.6389 251.8 77.8302 251.876 77.9451C251.915 77.9833 251.953 78.0216 251.953 78.0599L251.991 78.213L252.412 78.2895V78.213V78.3278H252.451C252.489 78.3278 252.527 78.3278 252.604 78.3278C252.451 78.3661 252.336 78.4426 252.297 78.4809H252.259L252.03 78.7488V78.8254C252.03 79.2464 252.297 79.4377 252.565 79.3995H252.718L252.757 79.2846H252.795H252.833L253.025 79.1698L253.063 79.1315C253.139 79.0167 253.139 78.9019 253.101 78.7871C253.101 78.634 253.063 78.5192 253.025 78.4809L252.986 78.4426L252.757 78.2895H252.68C252.718 78.2895 252.757 78.2895 252.795 78.2512C252.91 78.213 252.986 78.1364 253.025 78.0599C253.139 78.0599 253.254 77.9833 253.331 77.9068L253.369 77.8302V77.792C253.522 77.4858 253.407 77.2561 253.369 77.1413Z" fill="#3E5403"/>
<path d="M317.593 91.6088L317.287 91.4174H317.172C316.942 91.4557 316.789 91.5323 316.674 91.5705C316.636 91.6088 316.598 91.6088 316.56 91.6088H316.445L316.215 91.9533L316.253 92.0681C316.368 92.5274 316.636 92.7953 317.095 92.8719L317.248 92.9101L317.402 92.6805L317.516 92.6039L317.555 92.5657C317.631 92.4508 317.631 92.336 317.631 92.2212V92.1829C317.708 91.9533 317.669 91.8384 317.593 91.6471V91.6088Z" fill="#3E5403"/>
<path d="M314.262 75.1509C314.301 75.1126 314.377 75.1126 314.415 75.0744C314.492 75.0361 314.569 74.9978 314.683 74.9595L314.836 74.9213L315.028 74.6533V74.5768C315.028 74.4237 314.951 74.2706 314.875 74.1941C314.798 74.1558 314.683 74.0792 314.53 74.1175C314.492 74.1175 314.454 74.1175 314.415 74.1558L314.377 74.1175C314.301 74.041 314.148 73.9261 313.918 73.9644H313.803L313.688 74.1175L313.459 74.1558L313.229 74.4237V74.5003C313.229 74.883 313.42 75.0361 313.535 75.1509L313.573 75.1892L313.65 75.304L314.186 75.2657L314.262 75.1509Z" fill="#3E5403"/>
<path d="M313.19 104.163H313.343L313.611 103.78V103.665C313.535 103.283 313.305 103.206 313.075 103.206C313.037 103.206 312.999 103.206 312.961 103.244L312.884 103.283V103.321H312.846C312.807 103.321 312.769 103.321 312.731 103.359L312.654 103.397L312.463 103.704L312.501 104.01L312.807 104.239L313.19 104.163Z" fill="#3E5403"/>
<path d="M299.259 68.874C299.259 68.9888 299.335 69.1036 299.45 69.1802L299.527 69.3715L299.603 69.4098C299.833 69.5629 300.101 69.5246 300.292 69.5246C300.331 69.5246 300.407 69.5246 300.407 69.5246L300.56 69.5629L300.713 69.3333C300.79 69.3333 300.905 69.295 301.02 69.2184C301.096 69.1802 301.096 69.1036 301.134 69.0653C301.173 69.0271 301.211 68.9888 301.249 68.9505V68.9122L301.287 68.7974V68.7592C301.287 68.5295 301.211 68.3764 301.173 68.2233C301.173 68.185 301.134 68.1468 301.134 68.1085L301.096 67.9937L300.752 67.8023H300.675C300.637 67.8023 300.598 67.8023 300.56 67.764C300.484 67.7257 300.369 67.7257 300.216 67.7257C300.177 67.7257 300.139 67.7257 300.101 67.764C300.063 67.764 300.024 67.8023 299.948 67.8406L299.795 67.8023L299.718 67.8406C299.565 67.9554 299.489 68.1085 299.489 68.2233L299.374 68.2999L299.335 68.3764C299.335 68.4147 299.297 68.453 299.297 68.5295C299.259 68.6826 299.259 68.7974 299.259 68.874Z" fill="#3E5403"/>
<path d="M258.23 91.4557L257.924 91.3026H257.885C257.77 91.226 257.617 91.1112 257.426 91.1495C257.311 91.1495 257.196 91.226 257.12 91.3791H257.082L257.043 91.4174C256.967 91.4939 256.967 91.6088 256.928 91.6853C256.928 91.7236 256.89 91.7619 256.89 91.8001L256.852 91.8384L256.89 92.2594L257.005 92.336C257.12 92.3742 257.196 92.4125 257.311 92.4125C257.503 92.5273 257.694 92.4891 257.847 92.4891H257.885L258 92.5273L258.383 92.2594V92.1446C258.383 91.9149 258.306 91.7236 258.268 91.6088L258.23 91.4557Z" fill="#3E5403"/>
<path d="M247.09 83.9538C247.014 83.8773 246.861 83.6859 246.554 83.7242L246.401 83.7624L246.21 84.1069L246.248 84.2217C246.287 84.3366 246.287 84.4514 246.325 84.5279C246.363 84.681 246.363 84.8341 246.44 84.9872L246.478 85.0638L246.746 85.2169H246.822C247.129 85.1786 247.282 84.9489 247.282 84.5279C247.282 84.4897 247.282 84.4897 247.282 84.4514L247.32 84.3748L247.09 83.9538Z" fill="#3E5403"/>
<path d="M288.619 70.3282L288.695 70.2899L288.81 70.1368C288.81 70.1368 288.81 70.1368 288.848 70.1368C288.963 70.0986 289.154 70.022 289.231 69.7924C289.231 69.7541 289.231 69.7541 289.269 69.7158C289.307 69.6393 289.384 69.5627 289.384 69.4479V69.3714L289.193 69.0652L289.116 69.0269C289.04 68.9886 288.963 68.9886 288.925 68.9886H288.81C288.733 68.9886 288.695 68.9886 288.619 68.9886C288.619 68.9886 288.619 68.9886 288.58 68.9886C288.465 68.9121 288.351 68.9121 288.236 68.9121C288.198 68.9121 288.159 68.9121 288.121 68.9504L288.044 68.9886L287.93 69.18H287.777L287.47 69.5245L287.585 70.2517L287.93 70.4048L288.083 70.443L288.121 70.4048C288.198 70.443 288.312 70.443 288.465 70.443C288.504 70.3665 288.58 70.3282 288.619 70.3282Z" fill="#3E5403"/>
<path d="M292.906 93.025C292.906 92.9867 292.906 92.9867 292.906 92.9484V92.8719L292.715 92.6805H292.638C292.562 92.6423 292.485 92.6423 292.409 92.6805C292.256 92.7188 292.102 92.7953 291.949 92.9484L291.911 92.9867C291.796 93.025 291.528 93.1398 291.528 93.446C291.528 93.5225 291.567 93.7522 291.835 93.867L291.949 93.9053L292.064 93.867C292.102 93.867 292.102 93.9053 292.141 93.9053L292.332 93.9818L292.485 93.867L292.562 93.9053L292.638 93.867C292.715 93.9053 292.83 93.9436 292.906 93.9436H292.944L293.098 93.867L293.136 93.8287C293.251 93.6756 293.289 93.4843 293.212 93.2929C293.174 93.1398 293.059 93.0633 292.906 93.025Z" fill="#3E5403"/>
<path d="M282.84 90.7669C282.917 90.7669 282.993 90.7287 283.07 90.6521L283.108 90.6138L283.185 90.4225V90.3842C283.185 90.3459 283.185 90.2694 283.185 90.2311C283.185 90.0397 283.223 89.8101 283.108 89.5804C282.993 89.3508 282.802 89.3125 282.687 89.2742L282.649 89.1594L282.457 89.1977C282.381 89.1594 282.304 89.1211 282.266 89.1211L282.151 89.0829L282.036 89.1977L281.96 89.236C281.654 89.3508 281.615 89.5804 281.615 89.657V89.7718L281.692 89.8483C281.654 90.0014 281.577 90.1928 281.692 90.4225L281.73 90.5373L281.922 90.6138C281.96 90.6904 281.998 90.7669 282.113 90.8435C282.228 90.92 282.381 90.9583 282.496 90.92C282.572 90.92 282.649 90.8817 282.725 90.8052C282.764 90.7669 282.802 90.7669 282.84 90.7669Z" fill="#3E5403"/>
<path d="M299.719 77.7918L299.91 77.7535L299.987 77.5621C299.987 77.5621 299.987 77.5621 300.025 77.5238C300.064 77.4856 300.255 77.2942 300.178 77.0645C300.14 76.9115 299.987 76.7966 299.834 76.7584L299.719 76.7201L299.604 76.7966H299.451L299.183 77.1028L299.221 77.3707C299.336 77.7152 299.528 77.7918 299.719 77.7918Z" fill="#3E5403"/>
<path d="M298.111 68.6444C298.226 68.6827 298.341 68.6827 298.455 68.6444C298.762 68.6062 298.991 68.3765 299.144 68.2234L299.183 68.1851L299.259 68.032V67.9938C299.297 67.6493 299.259 66.9987 298.455 66.8456C298.341 66.769 298.226 66.769 298.149 66.769L297.958 66.8073L297.92 66.8838C297.843 66.8838 297.766 66.9221 297.728 66.9987C297.69 67.0369 297.652 67.1135 297.613 67.1517C297.537 67.2283 297.499 67.3048 297.46 67.3814L297.345 67.4579V67.5728C297.345 67.9172 297.537 68.1086 297.652 68.2234C297.728 68.4148 297.92 68.5296 298.111 68.5296V68.6444Z" fill="#3E5403"/>
<path d="M304.809 103.397C304.733 103.282 304.618 103.206 304.541 103.168V103.129L304.35 102.861L304.273 102.823C304.158 102.785 304.044 102.785 303.929 102.785C303.852 102.785 303.814 102.823 303.737 102.823C303.699 102.823 303.699 102.861 303.661 102.861H303.508L303.24 103.206V103.244C303.24 103.244 303.24 103.244 303.24 103.282C303.202 103.359 303.087 103.474 303.087 103.627C303.087 103.665 303.087 103.742 303.163 104.01V104.048L303.202 104.125C303.24 104.201 303.316 104.316 303.431 104.392L303.623 104.431C303.661 104.431 303.699 104.431 303.699 104.431L303.891 104.469L303.967 104.431C303.967 104.431 303.967 104.431 304.005 104.431H304.044C304.12 104.431 304.197 104.469 304.35 104.431L304.503 104.392L304.656 104.163L304.694 104.086V103.971C304.694 103.971 304.733 103.933 304.733 103.895C304.771 103.818 304.847 103.742 304.847 103.589V103.55L304.809 103.359V103.397Z" fill="#3E5403"/>
<path d="M303.125 90.6137C303.125 90.5754 303.087 90.5371 303.048 90.4989V90.4223L302.742 90.2309C302.704 90.1927 302.704 90.1161 302.666 90.0778L302.627 90.0396L302.398 89.8865H302.283C302.015 89.9247 301.785 90.1544 301.747 90.4223C301.747 90.4989 301.747 90.6137 301.785 90.6902C301.785 90.7285 301.785 90.7285 301.785 90.7668L301.67 90.9199L301.709 91.2261L302.015 91.4557L302.398 91.4174H302.436L302.627 91.4557L302.972 91.1878C303.087 91.1113 303.163 90.9964 303.163 90.8051V90.7668L303.125 90.6137Z" fill="#3E5403"/>
<path d="M272.467 82.2316C272.429 82.1168 272.352 81.9254 272.123 81.8106L271.97 81.7341L271.587 82.1168L271.625 82.2316V82.2699C271.625 82.3847 271.625 82.5761 271.817 82.6909C271.931 82.7675 272.046 82.8058 272.161 82.7675C272.199 82.7675 272.276 82.7292 272.314 82.7292L272.391 82.6909L272.505 82.3082L272.467 82.2316C272.467 82.2316 272.467 82.2699 272.467 82.2316Z" fill="#3E5403"/>
<path d="M271.625 70.5578C271.357 70.4047 271.089 70.3281 270.821 70.3664C270.591 70.4047 270.362 70.5195 270.209 70.7109L270.094 70.864L270.324 71.2085H270.285C270.285 71.1702 270.247 71.1702 270.247 71.1702C270.247 71.2084 270.247 71.2085 270.285 71.2467C270.324 71.3998 270.4 71.6677 270.63 71.8208L270.668 71.8591L270.821 71.8974H270.859C270.974 71.8974 271.012 71.8974 271.089 71.8974C271.166 71.8974 271.204 71.8974 271.28 71.8974C271.395 71.8974 271.472 71.8591 271.587 71.8208L271.663 71.7826L271.816 71.4764L271.778 71.3998C271.74 71.2467 271.74 71.1319 271.778 71.0171V70.9405L271.663 70.6726L271.625 70.5578Z" fill="#3E5403"/>
<path d="M269.022 70.7112C269.022 70.7112 268.983 70.7112 268.983 70.6729C268.907 70.6346 268.868 70.6346 268.792 70.5964L268.677 70.5581L268.409 70.826C268.256 70.9026 268.18 71.0556 268.141 71.2087L268.065 71.247L268.026 71.3236C267.912 71.5532 268.065 71.7446 268.103 71.8211L268.141 71.8977L268.409 72.0125H268.486C268.601 71.9742 268.715 71.9359 268.792 71.8594H269.022L269.098 71.7828C269.251 71.6298 269.289 71.4384 269.289 71.2853C269.289 71.247 269.289 71.2087 269.289 71.2087L269.328 71.0939L269.136 70.7112H269.022Z" fill="#3E5403"/>
<path d="M269.406 97.1201L269.483 97.1583L269.751 97.0818L269.789 97.0435C269.827 97.0052 269.865 96.9287 269.904 96.8904H269.98L270.248 96.3546L270.133 96.2398C270.133 96.2398 270.133 96.2015 270.095 96.1632C270.095 96.0484 270.057 95.8953 269.942 95.7805C269.865 95.6657 269.751 95.6274 269.636 95.5891L269.483 95.3595H269.33V95.2829L268.985 95.0533H268.947L268.87 95.015L268.602 95.0915C268.564 95.0533 268.449 95.015 268.334 95.015C268.22 94.9384 268.105 94.9002 267.99 94.8619H267.913L267.684 94.9384L267.645 94.9767C267.569 95.0533 267.569 95.1298 267.531 95.2064L267.378 95.3595V95.4743C267.378 95.5891 267.416 95.7039 267.416 95.7805C267.378 95.857 267.339 95.9718 267.378 96.0867C267.378 96.2015 267.454 96.3163 267.569 96.3929C267.645 96.4694 267.76 96.5077 267.875 96.4694C267.952 96.4694 268.066 96.4311 268.105 96.3546C268.105 96.3929 268.143 96.3929 268.143 96.4311V96.5077L268.258 96.7373L268.296 96.7756C268.334 96.7756 268.373 96.8139 268.449 96.8522L268.487 96.8904H268.526C268.755 97.0818 268.985 97.1201 269.176 97.1201C269.291 97.0818 269.368 97.0818 269.406 97.1201Z" fill="#3E5403"/>
<path d="M275.338 89.9246L275.491 89.8864L275.53 89.8481C275.721 89.695 275.759 89.4653 275.683 89.2357C275.606 89.0443 275.377 88.853 275.109 88.8912C274.956 88.9295 274.802 89.0443 274.726 89.1974L274.688 89.3122L274.841 89.5419C274.956 89.8098 275.147 89.8864 275.3 89.8864H275.338V89.9246Z" fill="#3E5403"/>
<path d="M278.246 81.5811L278.208 81.5428C278.246 81.3898 278.17 81.2367 278.132 81.1601L278.093 81.1218L277.902 81.007H277.864C277.825 80.9687 277.711 80.9305 277.557 80.9687C277.519 80.9687 277.481 80.9687 277.443 81.007L277.328 81.0453L277.251 81.2367C277.213 81.2367 277.213 81.2367 277.175 81.2367C277.098 81.2367 277.06 81.2749 276.983 81.2749L276.907 81.3132L276.754 81.6194V81.6959C276.83 82.0021 277.022 82.1552 277.175 82.1935L277.328 82.2318L277.557 82.0021H277.596C277.634 82.0021 277.711 82.0404 277.787 82.0021C277.978 81.9639 278.132 81.849 278.17 81.6577L278.246 81.5811Z" fill="#3E5403"/>
<path d="M281.46 92.4887C281.384 92.4121 281.231 92.2973 281.039 92.3356C280.924 92.3356 280.809 92.4121 280.695 92.5652L280.618 92.68L280.656 92.7949C280.503 92.9097 280.35 93.0245 280.197 93.1011L280.082 93.1393L279.929 93.5221L279.967 93.5986C279.967 93.5986 279.967 93.6369 279.967 93.6752C279.967 93.7517 279.929 93.8665 280.006 94.0196C280.044 94.1345 280.082 94.2493 280.121 94.3258L280.159 94.4024L280.35 94.5555H280.388C280.427 94.5555 280.427 94.5555 280.427 94.5555C280.503 94.5937 280.618 94.632 280.656 94.632H280.771L280.886 94.5172C280.924 94.5172 280.963 94.5172 281.001 94.5172C281.039 94.5172 281.077 94.5172 281.116 94.4789L281.192 94.4406L281.269 94.3258C281.307 94.3258 281.345 94.3258 281.345 94.3258L281.498 94.2875L281.69 93.9431L281.652 93.8665C281.652 93.79 281.652 93.6752 281.613 93.5986C281.613 93.4838 281.613 93.3307 281.537 93.1776C281.613 93.1011 281.652 93.0245 281.69 92.9097L281.728 92.7566L281.46 92.4887Z" fill="#3E5403"/>
<path d="M276.142 51.2679L276.065 51.1148C276.065 51.0383 276.104 50.8852 275.989 50.7321C275.912 50.6556 275.797 50.5407 275.568 50.579H275.491L275.3 50.7704H275.262C275.185 50.7704 274.994 50.8086 274.879 51L274.802 51.0766L274.879 51.4976L274.955 51.5359C275.185 51.6507 275.376 51.7272 275.568 51.689C275.644 51.689 275.683 51.6507 275.759 51.6507L275.836 51.842L275.912 51.5359C275.95 51.4976 275.989 51.4593 275.989 51.421L276.142 51.2679Z" fill="#3E5403"/>
<path d="M277.557 94.4794H277.442L277.213 94.7856V94.8621C277.213 94.977 277.251 95.2449 277.442 95.398C277.557 95.4745 277.672 95.5128 277.825 95.5128C277.863 95.5128 277.902 95.5128 277.902 95.4745L277.978 95.4363L278.17 95.1301V95.0535C278.093 94.4794 277.749 94.4411 277.557 94.4794Z" fill="#3E5403"/>
<path d="M277.404 102.823C277.212 102.861 277.098 102.976 277.021 103.167L276.983 103.282L277.212 103.627H277.251C277.289 103.665 277.442 103.818 277.633 103.818H277.748L278.016 103.55V103.435C278.016 103.282 277.94 103.091 277.825 102.938C277.71 102.861 277.557 102.823 277.404 102.823Z" fill="#3E5403"/>
<path d="M286.399 100.297L286.475 100.335L286.705 100.259H286.743C286.782 100.297 286.82 100.335 286.858 100.374L286.973 100.45L287.356 100.259V100.144C287.356 100.067 287.394 99.8761 287.241 99.723C287.279 99.6847 287.279 99.6465 287.279 99.6082L287.318 99.3785H287.279C287.279 99.3403 287.279 99.3402 287.279 99.302C287.241 99.2254 287.203 99.1872 287.164 99.1106C287.126 99.0723 287.088 98.9958 287.011 98.9575L286.973 98.9192L286.782 98.881H286.743C286.705 98.881 286.667 98.9192 286.667 98.9192L286.59 98.881C286.552 98.881 286.437 98.8427 286.322 98.8427C286.246 98.881 286.131 98.9575 286.093 99.0723C286.054 99.0723 286.016 99.1106 285.978 99.1489L285.901 99.1872L285.825 99.4551L285.863 99.5316C285.978 99.9526 286.131 100.106 286.399 100.297Z" fill="#3E5403"/>
<path d="M298.57 43.8428C298.455 43.4218 298.148 43.46 298.034 43.46L297.881 43.4983L297.689 43.8811L297.727 43.9576C297.804 44.1107 297.919 44.5317 298.302 44.4934C298.378 44.4934 298.57 44.4169 298.646 44.1872L298.684 44.0724L298.57 43.8428Z" fill="#3E5403"/>
<path d="M299.604 61.5639L299.489 61.4873L299.068 61.8318L299.107 62.138L299.183 62.2528L299.145 62.2911C298.954 62.4059 298.915 62.559 298.915 62.6355V62.7503L299.145 63.0183C299.183 63.0565 299.298 63.1331 299.413 63.1331H299.489L299.757 63.0183L299.796 62.98C299.872 62.8652 299.91 62.7121 299.872 62.559C299.872 62.5207 299.834 62.4442 299.796 62.4059C299.91 62.3293 300.025 62.2145 300.025 62.0231V61.9083L299.681 61.6021L299.604 61.5639Z" fill="#3E5403"/>
<path d="M315.641 23.4427L315.679 23.481L315.909 23.5575L316.215 23.5192L316.291 23.3661C316.368 23.3279 316.445 23.2513 316.483 23.1748C316.559 23.0982 316.636 22.9834 316.636 22.8686V22.7155L316.406 22.5241C316.406 22.5624 316.445 22.5624 316.445 22.5624C316.445 22.5624 316.445 22.5241 316.406 22.4858C316.291 22.1031 316.062 22.0648 315.909 22.0648C315.717 22.1031 315.603 22.2562 315.564 22.3327L315.488 22.4476V22.4858L315.449 22.5624V22.6007L315.335 22.7538L315.373 23.1365C315.488 23.2896 315.603 23.3661 315.641 23.4427Z" fill="#3E5403"/>
<path d="M307.832 9.51097L307.756 9.43442C307.756 9.1665 307.564 9.05168 307.488 9.0134L307.411 8.97513L307.258 9.0134L307.028 9.12822L306.99 9.1665C306.952 9.1665 306.914 9.1665 306.914 9.20477V9.24305L306.875 9.20477C306.76 9.28132 306.684 9.39614 306.646 9.51097V9.54924C306.416 9.66406 306.416 9.85543 306.378 9.93198V10.0085L306.416 10.0851C306.378 10.1616 306.378 10.2382 306.378 10.3147L306.339 10.353L306.301 10.5444L306.378 11.0037L306.722 11.2333L306.837 11.195C306.875 11.195 306.875 11.195 306.914 11.195C306.99 11.195 307.028 11.195 307.105 11.195C307.22 11.195 307.296 11.1568 307.411 11.0802L307.449 11.0419L307.564 10.8123V10.7357C307.564 10.6592 307.564 10.5826 307.564 10.5444C307.679 10.5061 307.794 10.3913 307.832 10.2764C307.87 10.1999 307.87 10.0085 307.717 9.81716L307.794 9.70234L307.832 9.51097Z" fill="#3E5403"/>
<path d="M317.63 10.5826L317.706 10.5443L317.63 10.6208L317.783 10.8122H317.859C317.936 10.8122 317.974 10.8122 318.051 10.8122C318.127 10.8122 318.242 10.7739 318.28 10.6974H318.319L318.395 10.6591C318.433 10.6591 318.472 10.6208 318.472 10.6208C318.548 10.5826 318.625 10.5443 318.663 10.506L318.701 10.4677V10.3912L318.931 10.1615V10.1233V10.085C318.969 10.0085 319.084 9.81708 318.969 9.58744C318.893 9.47261 318.778 9.35779 318.625 9.35779H318.51L318.472 9.28124H318.357C318.319 9.28124 318.319 9.28124 318.28 9.28124C318.204 9.16642 318.051 9.12815 317.936 9.16642C317.859 9.16642 317.744 9.2047 317.63 9.39607L317.438 9.43434L317.477 9.74053C317.438 9.81708 317.4 9.9319 317.477 10.085L317.362 10.1998L317.63 10.5826Z" fill="#3E5403"/>
<path d="M308.33 53.7557C308.33 53.8705 308.368 54.0619 308.483 54.215L308.559 54.3298L308.942 54.2533L309.095 54.215L309.133 54.1385C309.21 54.1002 309.325 54.0236 309.401 53.8323V53.794L309.478 53.7557L309.401 53.5261L309.439 53.4495L309.172 52.952H309.133C309.057 52.8372 308.904 52.6841 308.636 52.7223H308.559L308.33 52.9137L308.291 53.0285L308.215 53.1051V53.4113V53.5261L308.291 53.6026C308.33 53.6409 308.33 53.7174 308.33 53.7557Z" fill="#3E5403"/>
<path d="M305.879 24.5908L305.918 24.476L305.573 24.2463L305.42 24.1698L305.344 24.208C305.229 24.1698 305.114 24.0932 304.884 24.1315C304.846 24.1315 304.77 24.1698 304.731 24.1698H304.693L304.578 24.2463L304.54 24.2846C304.387 24.3229 304.195 24.4377 304.195 24.7056L304.119 24.8204L304.157 24.9353C304.234 25.0883 304.31 25.2797 304.387 25.3945C304.425 25.4328 304.463 25.4711 304.463 25.5094L304.502 25.6625L304.923 25.739V25.6625V25.7773H304.961C304.999 25.7773 305.037 25.7773 305.114 25.7773C304.961 25.8156 304.846 25.8921 304.808 25.9304H304.77L304.54 26.1983V26.2748C304.54 26.6959 304.808 26.8872 305.076 26.849H305.229L305.267 26.7341H305.305H305.344L305.535 26.6193L305.573 26.581C305.65 26.4662 305.65 26.3514 305.612 26.2366C305.65 26.0835 305.573 25.9687 305.535 25.9304L305.497 25.8921L305.267 25.7773H305.191C305.229 25.7773 305.267 25.7773 305.305 25.739C305.42 25.7007 305.497 25.6242 305.535 25.5476C305.65 25.5476 305.765 25.4711 305.841 25.3945L305.879 25.3563L305.918 25.2797V25.2414C306.071 24.9353 305.956 24.7056 305.879 24.5908C305.918 24.5908 305.879 24.5908 305.879 24.5908Z" fill="#3E5403"/>
<path d="M310.78 38.9435L310.474 38.7904H310.435C310.321 38.7139 310.167 38.599 309.976 38.6373C309.861 38.6373 309.746 38.7138 309.67 38.8669H309.632L309.593 38.9052C309.517 38.9818 309.517 39.0966 309.479 39.1731C309.479 39.2114 309.44 39.2497 309.44 39.288L309.402 39.3262L309.44 39.7472L309.555 39.8238C309.67 39.8621 309.746 39.9003 309.861 39.9003C310.053 40.0152 310.282 39.9769 310.397 39.9769H310.435L310.55 40.0152L310.895 39.7472V39.6324C310.895 39.4028 310.818 39.2114 310.78 39.0966V38.9435Z" fill="#3E5403"/>
<path d="M312.961 78.7102L312.884 78.6337L312.616 78.672H312.578C312.54 78.6337 312.501 78.5954 312.463 78.5189L312.348 78.4423L311.889 78.5954L311.851 78.7102C311.851 78.7868 311.774 79.0164 311.889 79.2078C311.851 79.2461 311.851 79.2843 311.812 79.3226L311.736 79.5523H311.774C311.774 79.5905 311.774 79.6288 311.774 79.6288C311.774 79.7054 311.812 79.7819 311.889 79.8202C311.927 79.8967 311.965 79.9733 312.042 80.0115L312.08 80.0498L312.31 80.0881H312.348C312.386 80.0881 312.425 80.0881 312.463 80.0498L312.54 80.0881H312.578C312.616 80.1264 312.731 80.1646 312.884 80.1646C312.999 80.1646 313.114 80.0881 313.19 79.9733C313.229 79.9733 313.267 79.935 313.305 79.8967L313.382 79.8585L313.535 79.5523V79.4757C313.382 79.1312 313.229 78.9399 312.961 78.7102Z" fill="#3E5403"/>
<path d="M323.217 67.1136H323.102L322.911 67.3816L322.835 67.4581L322.873 67.5729C322.873 67.5729 322.873 67.5729 322.873 67.6112C322.873 67.6495 322.873 67.6877 322.911 67.726L322.796 67.8026L322.758 67.8791C322.72 68.0322 322.758 68.2236 322.873 68.3384C322.988 68.4532 323.179 68.5298 323.332 68.5298C323.485 68.4915 323.6 68.4149 323.677 68.2618C323.791 68.2618 323.944 68.1853 324.059 67.9557L324.098 67.8791L324.059 67.6112L323.983 67.4964C323.868 67.3433 323.638 67.0754 323.217 67.1136Z" fill="#3E5403"/>
<path d="M324.329 71.5531L324.252 71.4001L324.214 71.3618C324.137 71.2852 324.099 71.247 324.022 71.2087C324.022 71.1321 323.984 71.0939 323.946 71.0173L323.908 70.979L323.678 70.9025H323.601C323.448 70.9408 323.333 71.0173 323.295 71.1321H323.257L322.989 71.1704L322.912 71.247L322.798 71.2852L322.759 71.3618C322.606 71.4383 322.491 71.5914 322.491 71.8211V71.8976L322.606 72.0507V72.089C322.606 72.2421 322.645 72.5866 323.066 72.7397H323.104C323.18 72.8545 323.257 72.931 323.333 72.931L323.448 73.0076L323.869 72.8162V72.7014L324.214 72.6631L324.29 72.5483C324.329 72.4717 324.367 72.4335 324.367 72.3569L324.52 72.2038L324.443 71.9359C324.405 71.8211 324.367 71.7445 324.329 71.5531Z" fill="#3E5403"/>
<path d="M298.953 55.1335C298.915 55.1335 298.877 55.1335 298.839 55.1335C298.418 55.2101 298.303 55.478 298.341 55.7076V55.8225L298.762 56.0521L298.877 56.0138C298.877 56.0138 298.915 56.0138 298.915 55.9756C299.03 55.9373 299.221 55.8607 299.336 55.6311L299.374 55.5163L299.068 55.0952L298.953 55.1335Z" fill="#3E5403"/>
<path d="M299.642 31.4038C299.566 31.3272 299.412 31.1358 299.106 31.1741L298.953 31.2124L298.762 31.5569L298.8 31.6717C298.838 31.7865 298.838 31.9013 298.877 31.9779C298.877 32.131 298.915 32.2458 298.991 32.4372L299.03 32.5137L299.298 32.6668H299.374C299.68 32.6285 299.833 32.3989 299.833 31.9779C299.833 31.9396 299.833 31.9396 299.833 31.9013L299.872 31.8248L299.642 31.4038Z" fill="#3E5403"/>
<path d="M325.017 29.6814C324.979 29.5665 324.902 29.3752 324.673 29.2603L324.52 29.1838L324.137 29.5665L324.175 29.6814V29.7196C324.175 29.8345 324.175 30.0258 324.367 30.1407C324.481 30.2172 324.596 30.2555 324.711 30.2172C324.749 30.2172 324.826 30.1789 324.864 30.1789L324.941 30.1407L325.056 29.7579L325.017 29.6814C325.017 29.7196 325.017 29.6814 325.017 29.6814Z" fill="#3E5403"/>
<path d="M324.177 18.0075C323.909 17.8544 323.641 17.7779 323.373 17.8161C323.143 17.8544 322.914 17.9692 322.761 18.1606L322.646 18.3137L322.837 18.6582H322.799C322.799 18.6199 322.761 18.6199 322.761 18.6199C322.761 18.6582 322.761 18.6582 322.799 18.6964C322.837 18.8495 322.914 19.1175 323.143 19.2706H323.182L323.335 19.3088H323.373C323.488 19.3088 323.526 19.3088 323.603 19.3088C323.679 19.3088 323.717 19.3088 323.794 19.3088C323.909 19.3088 323.985 19.2706 324.1 19.2323L324.177 19.194L324.33 18.8878L324.292 18.8113C324.253 18.6582 324.253 18.5434 324.292 18.4285V18.352L324.177 18.0841V18.0075Z" fill="#3E5403"/>
<path d="M321.572 18.1988C321.572 18.1988 321.533 18.1988 321.533 18.1605C321.495 18.1222 321.419 18.1222 321.342 18.084L321.227 18.0457L320.959 18.3136C320.806 18.3902 320.73 18.5432 320.691 18.6963L320.615 18.7346L320.577 18.8112C320.462 19.0408 320.615 19.2322 320.653 19.3087L320.691 19.3853L320.959 19.5001H321.036C321.151 19.4618 321.265 19.4236 321.342 19.347H321.572L321.648 19.2705C321.801 19.1174 321.84 18.926 321.84 18.7729C321.84 18.7346 321.84 18.6963 321.84 18.6963L321.878 18.5815L321.686 18.1988H321.572Z" fill="#3E5403"/>
<path d="M321.954 44.57L322.031 44.6083L322.299 44.5317L322.337 44.4935C322.375 44.4552 322.414 44.3786 322.452 44.3404H322.528L322.796 43.8045L322.681 43.6897C322.681 43.6897 322.681 43.6514 322.643 43.6132C322.643 43.4983 322.605 43.3452 322.49 43.2304C322.414 43.1156 322.299 43.0773 322.184 43.039L322.031 42.8094H321.878V42.7328L321.533 42.5032H321.495L321.418 42.4649L321.151 42.5415C321.112 42.5032 320.997 42.4649 320.883 42.4649C320.768 42.3884 320.653 42.3501 320.538 42.3118H320.462L320.232 42.3884L320.194 42.4267C320.117 42.5032 320.117 42.5798 320.079 42.6563L319.926 42.8094V42.9242C319.926 43.039 319.964 43.1539 319.964 43.2304C319.926 43.307 319.887 43.4218 319.926 43.5366C319.926 43.6514 320.002 43.7662 320.117 43.8428C320.194 43.9193 320.309 43.9576 320.423 43.9193C320.5 43.9193 320.615 43.8811 320.653 43.8045C320.653 43.8428 320.691 43.8428 320.691 43.8811V43.9576L320.806 44.1873L320.844 44.2255C320.883 44.2255 320.921 44.2638 320.959 44.3021L320.997 44.3404H321.036C321.265 44.5317 321.495 44.57 321.686 44.57C321.839 44.5317 321.916 44.5317 321.954 44.57Z" fill="#3E5403"/>
<path d="M325.017 56.2054L325.361 55.9757V55.9375C325.438 55.8992 325.514 55.8609 325.552 55.7844C325.552 55.7844 325.552 55.7844 325.552 55.7461L325.859 55.5547V55.4016C325.859 55.172 325.782 54.9806 325.591 54.8275C325.399 54.6744 325.131 54.5979 324.864 54.6361C324.825 54.6361 324.749 54.6361 324.71 54.6744L324.443 54.5596L324.328 54.6361C324.328 54.6361 324.289 54.6361 324.251 54.6744C324.213 54.6744 324.213 54.6744 324.175 54.6744H324.136C324.098 54.6744 324.098 54.6744 324.06 54.6744C323.945 54.6744 323.868 54.7127 323.754 54.7892C323.639 54.8658 323.6 54.9806 323.562 55.0572C323.486 55.0954 323.409 55.172 323.333 55.3251L323.294 55.4399L323.371 55.593C323.333 55.6695 323.294 55.7078 323.294 55.8226V55.9375L323.562 56.1671L323.639 56.2054C323.639 56.2437 323.639 56.2819 323.639 56.3202V56.435L323.907 56.703H324.022C324.06 56.703 324.136 56.703 324.175 56.703C324.213 56.7412 324.251 56.7412 324.328 56.7412L324.443 56.7795L324.519 56.703L324.672 56.7412L325.055 56.3968L325.017 56.2437C325.055 56.2819 325.055 56.2437 325.017 56.2054Z" fill="#3E5403"/>
<path d="M316.827 98.4981L317.057 98.766H317.248C317.401 98.766 317.593 98.766 317.822 98.7278C317.899 98.7278 317.975 98.6895 318.014 98.6512L318.129 98.6129L318.167 98.4216C318.243 98.3833 318.32 98.3067 318.358 98.1536C318.396 97.9623 318.32 97.6561 318.129 97.5412C317.975 97.2733 317.708 97.1968 317.593 97.1585L317.516 97.1202L317.287 97.2733H317.248C317.21 97.2733 317.095 97.2733 317.019 97.3116C316.98 97.3116 316.942 97.3499 316.904 97.3499H316.866L316.789 97.4264C316.712 97.503 316.674 97.6178 316.674 97.6943C316.598 97.8092 316.598 97.9623 316.598 98.0388V98.0771V98.1536L316.712 98.4216C316.751 98.4598 316.827 98.4981 316.827 98.4981Z" fill="#3E5403"/>
<path d="M321.303 78.1366L321.265 78.0217L320.959 77.8304C320.959 77.8304 320.882 77.8686 320.844 77.8686C320.844 77.8686 320.806 77.8686 320.806 77.8304L320.691 77.7921L320.308 78.1366L320.423 78.5576L320.729 78.7489L320.806 78.7107C320.844 78.7107 320.882 78.7107 320.921 78.6724C321.265 78.5958 321.342 78.3279 321.303 78.1366Z" fill="#3E5403"/>
<path d="M318.356 70.3268L318.547 70.021V69.9446C318.471 69.6007 318.241 69.4861 318.127 69.4478L318.012 69.4096L317.783 69.6389L317.706 69.7153L317.745 69.83C317.859 70.3268 318.165 70.365 318.318 70.3268H318.356Z" fill="#3E5403"/>
<path d="M317.439 78.0598L317.286 78.1747L317.248 78.2129C317.133 78.366 317.172 78.634 317.286 78.7871C317.401 78.9402 317.554 79.0167 317.746 78.9402L317.86 78.9019L318.014 78.5191L317.975 78.4426C317.975 78.4426 317.975 78.4426 317.975 78.4043C317.975 78.3278 317.937 78.1364 317.784 78.0216C317.707 77.945 317.593 77.945 317.478 77.9833L317.439 78.0598Z" fill="#3E5403"/>
<path d="M321.918 93.3312V93.4077L322.148 93.5991H322.186C322.224 93.6757 322.262 93.7139 322.339 93.7522L322.377 93.7905L322.569 93.8288H322.607C322.76 93.7905 322.837 93.6757 322.875 93.5226C322.913 93.2547 322.913 92.9867 322.53 92.7954L322.377 92.7188L322.262 92.8719H322.224C322.033 92.9102 321.88 93.0633 321.918 93.3312Z" fill="#3E5403"/>
<path d="M324.596 99.5702L324.367 99.7998V99.8763V99.9146C324.367 99.9529 324.328 100.029 324.328 100.106V100.183L324.596 100.45L324.788 100.412C325.055 100.336 325.17 100.068 325.094 99.8381C325.055 99.6084 324.864 99.4936 324.634 99.4936L324.596 99.5702Z" fill="#3E5403"/>
<path d="M292.714 89.9249L292.982 90.0397L293.096 90.0014C293.288 89.9632 293.441 89.8483 293.518 89.8101C293.556 89.7718 293.594 89.7718 293.594 89.7718L293.671 89.7335L293.862 89.3891L293.824 89.3125C293.671 88.9298 293.403 88.7001 292.982 88.7001H292.829L292.714 88.9298L292.637 89.0063L292.599 89.0446C292.561 89.1594 292.561 89.2742 292.561 89.3508V89.3891C292.522 89.6187 292.561 89.6952 292.637 89.8483L292.714 89.9249Z" fill="#3E5403"/>
<path d="M293.596 75.1512C293.596 75.2277 293.634 75.3425 293.672 75.4191L293.711 75.4573L293.902 75.5722H294.055C294.323 75.4956 294.438 75.2277 294.361 74.9981V74.9598L294.399 74.845V74.8067C294.399 74.7301 294.361 74.6153 294.285 74.5388C294.323 74.4622 294.361 74.3857 294.323 74.2709V74.1943L294.017 73.9647L293.864 74.0029C293.596 74.0795 293.443 74.4239 293.519 74.6153V74.6536C293.481 74.7301 293.366 74.8832 293.443 75.0746C293.519 75.0746 293.557 75.1129 293.596 75.1512Z" fill="#3E5403"/>
<path d="M297.614 104.201C297.575 104.239 297.537 104.239 297.46 104.277C297.384 104.316 297.307 104.354 297.231 104.392L297.078 104.43L296.963 104.698V104.775C297.001 104.928 297.039 105.043 297.154 105.081C297.231 105.119 297.307 105.158 297.46 105.119C297.499 105.119 297.537 105.081 297.537 105.081H297.575C297.652 105.119 297.805 105.234 298.035 105.158L298.111 105.119L298.188 105.005L298.379 104.966L298.57 104.698V104.622C298.532 104.277 298.341 104.163 298.226 104.086L298.188 104.048L298.111 103.933L297.652 104.048L297.614 104.201Z" fill="#3E5403"/>
<path d="M295.125 78.2127H294.972L294.781 78.5955L294.819 78.672C294.934 79.0165 295.163 79.0547 295.355 79.0165C295.393 79.0165 295.431 78.9782 295.47 78.9782L295.546 78.9399V78.9017H295.584C295.623 78.9017 295.661 78.8634 295.699 78.8634L295.776 78.8251L295.891 78.5189L295.814 78.251L295.508 78.0979L295.125 78.2127Z" fill="#3E5403"/>
<path d="M295.125 72.3187H295.163C295.202 72.3187 295.278 72.357 295.355 72.357H295.47L295.737 72.0508L295.699 71.9359C295.661 71.7446 295.546 71.668 295.47 71.6298C295.355 71.5532 295.24 71.5532 295.125 71.5915C294.972 71.6298 294.857 71.7446 294.819 71.8594L294.781 71.9742L295.01 72.3187H295.125Z" fill="#3E5403"/>
<path d="M279.816 72.1656L279.893 72.2038C280.008 72.2421 280.122 72.2804 280.199 72.2421C280.237 72.2421 280.275 72.2038 280.275 72.2038C280.352 72.2421 280.505 72.2804 280.658 72.2421L280.811 72.2038L280.888 71.9742C280.888 71.9742 280.888 71.9742 280.926 71.9359C280.964 71.8594 281.117 71.7063 281.079 71.5149C281.079 71.4384 281.041 71.4001 280.964 71.3235C280.926 71.247 280.888 71.1705 280.85 71.1322C280.735 71.0556 280.62 71.0174 280.467 71.0556L280.352 71.0939L280.314 71.1705H280.275H280.237C280.122 71.0556 279.969 71.0939 279.931 71.0939C279.854 71.1322 279.663 71.2087 279.663 71.4766V71.5532C279.663 71.5915 279.663 71.6297 279.701 71.6297C279.701 71.668 279.663 71.7063 279.663 71.8211V71.8977L279.816 72.1656Z" fill="#3E5403"/>
<path d="M294.781 54.5596H294.858C294.858 54.5978 294.896 54.5978 294.934 54.5978C294.896 54.7127 294.858 54.7892 294.858 54.8657L294.819 54.9423L295.087 55.2868H295.202C295.24 55.2868 295.279 55.2868 295.317 55.2868C295.432 55.2485 295.508 55.2102 295.547 55.0954C295.585 55.0571 295.585 54.9806 295.585 54.9423C295.623 54.8657 295.661 54.7892 295.661 54.7126C295.661 54.6744 295.623 54.5595 295.508 54.4447L295.585 54.2916V54.2151C295.508 53.8706 295.279 53.7558 295.164 53.7175H295.087C295.087 53.641 295.087 53.5644 295.049 53.5261L295.011 53.4496L294.858 53.373L294.705 53.2582L294.475 53.3348C294.437 53.3348 294.398 53.3348 294.36 53.3348H294.245L293.977 53.641L294.016 53.7558C294.016 53.7941 294.016 53.7941 294.016 53.8323L293.824 54.0237L293.901 54.1768C294.016 54.3682 294.284 54.5978 294.781 54.5596Z" fill="#3E5403"/>
<path d="M312.119 65.6208C312.157 65.659 312.157 65.659 312.195 65.6973C312.195 65.7356 312.195 65.7356 312.195 65.7739V65.8121L312.233 65.9652L312.272 66.0035C312.31 66.08 312.386 66.1183 312.425 66.1566C312.425 66.1566 312.425 66.1566 312.463 66.1566L312.501 66.2331L312.846 66.348L312.922 66.3097C312.961 66.2714 312.999 66.2714 312.999 66.2714C312.999 66.2714 313.037 66.2714 313.075 66.2714C313.114 66.2714 313.19 66.3097 313.267 66.3097C313.305 66.3097 313.343 66.3097 313.382 66.3097C313.496 66.2714 313.573 66.1949 313.649 66.0801C313.688 66.0801 313.726 66.0801 313.764 66.0801H313.841L314.032 65.8504V65.7739C314.032 65.6973 314.032 65.5825 313.917 65.5059C313.917 65.4677 313.841 65.3528 313.841 65.3528C313.764 65.1615 313.688 64.9701 313.573 64.7405L313.535 64.7022L313.343 64.5874H313.267C313.228 64.5874 313.152 64.5874 313.114 64.5874H313.075H312.807L312.769 64.6256C312.731 64.6639 312.654 64.7022 312.616 64.7022C312.348 64.817 311.927 65.0466 312.004 65.5442V65.5825L312.119 65.6208Z" fill="#3E5403"/>
<path d="M314.531 85.7144C314.531 85.7144 314.531 85.7527 314.569 85.7527L314.607 85.791L314.799 85.9058H314.837C314.914 85.9058 314.99 85.9058 315.028 85.9058C315.181 85.8675 315.296 85.7527 315.411 85.5996V85.5613C315.526 85.5231 315.717 85.37 315.717 85.1021C315.717 85.0255 315.641 84.8341 315.373 84.7576L315.258 84.7193L315.181 84.7959C315.181 84.7959 315.143 84.7959 315.105 84.7576L314.914 84.7193L314.76 84.8724L314.684 84.8342L314.607 84.8724C314.531 84.8341 314.454 84.8342 314.339 84.8342H314.301L314.148 84.949L314.11 84.9872C313.995 85.1403 314.033 85.3317 314.11 85.4465C314.301 85.6379 314.416 85.7144 314.531 85.7144Z" fill="#3E5403"/>
<path d="M313.344 54.6742L313.574 54.7508H313.651C313.727 54.7508 313.804 54.7125 313.842 54.636C313.957 54.636 314.072 54.636 314.225 54.5977C314.378 54.5594 314.493 54.4829 314.569 54.4063L314.607 54.368L314.646 54.1384L314.607 54.1001C314.493 53.7939 314.339 53.6408 314.186 53.526C314.11 53.4495 314.072 53.4112 314.072 53.3729L314.033 53.3346L313.804 53.2198H313.727C313.689 53.2198 313.612 53.2198 313.574 53.2581H313.536C313.421 53.1815 313.268 53.1433 313.076 53.1815L312.962 53.2198L312.809 53.6408L312.885 53.7556C312.923 53.8322 312.923 53.9087 312.923 54.0236C313.038 54.1001 313.038 54.4446 313.344 54.6742Z" fill="#3E5403"/>
<path d="M323.793 86.5182C323.717 86.5565 323.64 86.5947 323.602 86.633L323.564 86.6713L323.525 86.8627V86.9009C323.525 86.9392 323.525 86.9775 323.525 87.0158C323.525 87.1689 323.525 87.3985 323.678 87.5516C323.793 87.743 323.985 87.7812 324.099 87.7812L324.176 87.8578L324.329 87.7812C324.406 87.8195 324.444 87.8195 324.482 87.8195L324.597 87.8578L324.712 87.743L324.75 87.7047C325.018 87.5899 325.018 87.3602 325.018 87.2837V87.2071L324.941 87.1689C324.98 87.054 324.98 86.8627 324.903 86.6713L324.865 86.5947L324.674 86.5565C324.635 86.5182 324.597 86.4416 324.482 86.4034C324.367 86.3651 324.253 86.3651 324.138 86.3651C324.061 86.3651 324.023 86.4034 323.946 86.4799C323.87 86.5182 323.832 86.5182 323.793 86.5182Z" fill="#3E5403"/>
<path d="M310.281 100.106L310.128 100.182L310.052 100.374C310.052 100.374 310.052 100.374 310.052 100.412C310.013 100.45 309.86 100.642 309.975 100.833C310.052 100.948 310.167 101.024 310.32 101.063H310.434L310.511 100.948L310.626 100.91L310.817 100.603L310.741 100.374C310.664 100.144 310.434 100.068 310.281 100.106Z" fill="#3E5403"/>
<path d="M303.89 71.4381C303.966 71.5529 303.966 71.5912 303.966 71.6677V71.7443L304.081 71.9739L304.157 72.0122C304.502 72.2036 304.923 72.127 305.114 72.0505L305.229 72.0122L305.267 71.8974L305.306 71.9356L305.42 71.7443C305.574 71.4763 305.574 71.0553 305.497 70.7491C305.459 70.6343 305.344 70.5578 305.267 70.5195L305.114 70.3281L304.999 70.3664L304.961 70.2516L304.693 70.3281V70.3664V70.3281V70.2898C304.617 70.2898 304.54 70.2516 304.425 70.2898C304.311 70.3281 304.234 70.4047 304.196 70.4812H304.157L304.043 70.6726L304.004 70.7491V70.8257L303.966 70.864C303.928 70.9022 303.928 70.9405 303.89 70.9405L303.851 70.9788L303.813 71.2084L303.851 71.2467C303.851 71.3615 303.89 71.4381 303.89 71.4381Z" fill="#3E5403"/>
<path d="M302.704 77.8689C302.781 77.9837 302.896 78.022 302.972 78.022V78.0602L303.164 78.2516H303.24C303.355 78.2516 303.431 78.2516 303.546 78.2516C303.585 78.2516 303.661 78.2133 303.699 78.1751C303.738 78.1751 303.738 78.1368 303.776 78.1368L303.891 78.0985L304.082 77.754V77.7158C304.082 77.7158 304.082 77.7158 304.082 77.6775C304.12 77.6009 304.197 77.4861 304.159 77.333C304.159 77.2948 304.159 77.2182 304.044 76.9886V76.9503L304.006 76.8737C303.967 76.7972 303.891 76.7206 303.776 76.6824L303.585 76.6441C303.546 76.6441 303.546 76.6441 303.508 76.6441H303.355L303.278 76.6824H303.24C303.164 76.6824 303.087 76.6824 302.972 76.7206L302.857 76.7589L302.743 76.9886L302.704 77.0651L302.743 77.1417C302.743 77.1417 302.743 77.1799 302.704 77.2182C302.666 77.2948 302.628 77.3713 302.628 77.4861V77.5244L302.704 77.8689Z" fill="#3E5403"/>
<path d="M304.578 74.0792C304.769 74.2323 304.999 74.2706 305.228 74.194C305.343 74.1558 305.458 74.1175 305.573 74.0409C305.649 74.0409 305.726 74.0409 305.764 74.0027L305.994 73.9261L306.07 73.6965C306.109 73.6582 306.185 73.6199 306.224 73.5051C306.262 73.3903 306.262 73.2755 306.262 73.1989L306.338 72.931L306.224 72.8162C306.185 72.8162 306.185 72.7396 306.185 72.7013C306.147 72.5865 306.032 72.2803 305.688 72.2421H305.649C305.573 72.2038 305.496 72.2038 305.42 72.2038L305.343 72.1655H305.267C305.228 72.1655 305.19 72.1655 305.152 72.2038C304.922 72.2803 304.807 72.4334 304.769 72.5483L304.616 72.6248L304.578 72.6631C304.539 72.7396 304.463 72.8544 304.463 73.0075L304.386 73.0841V73.1606L304.348 73.1989V73.2372C304.272 73.3903 304.233 73.5817 304.463 73.8113C304.463 73.9644 304.539 74.0409 304.578 74.0792Z" fill="#3E5403"/>
<path d="M305.726 89.0829C305.764 89.1212 305.764 89.1594 305.803 89.1977V89.2743L306.109 89.4273C306.147 89.4656 306.147 89.5039 306.185 89.5422L306.224 89.5804L306.453 89.657L306.568 89.6187C306.798 89.5422 306.989 89.3125 306.989 89.0829C306.989 89.0063 306.951 88.9298 306.913 88.8532C306.913 88.815 306.913 88.815 306.913 88.7767L306.989 88.6236L306.913 88.3557L306.606 88.2026L306.262 88.2791H306.224H306.071L305.803 88.5853C305.726 88.6619 305.65 88.7767 305.688 88.9298V88.9681L305.726 89.0829Z" fill="#3E5403"/>
<path d="M325.783 53.1049C325.86 53.0666 325.974 53.0284 326.013 52.9518L326.051 52.8753V52.5691L325.974 52.4542C325.898 52.3394 325.707 52.0715 325.324 52.1098H325.247L325.056 52.3011V52.3777C325.018 52.6073 325.094 52.7987 325.247 52.9518C325.4 53.1049 325.592 53.1815 325.783 53.1049Z" fill="#3E5403"/>
<path d="M324.826 84.7958C324.902 84.8341 325.055 84.9489 325.247 84.9106C325.323 84.8723 325.438 84.8341 325.515 84.6427L325.553 84.5279L325.476 84.4131C325.591 84.2982 325.706 84.1834 325.859 84.0686L325.936 84.0303L326.012 83.6859L325.974 83.6093V83.571C325.974 83.4945 325.974 83.3797 325.897 83.2648C325.859 83.15 325.821 83.0735 325.744 82.9969L325.706 82.9204L325.515 82.8055H325.476H325.438C325.362 82.7673 325.285 82.7673 325.209 82.7673H325.132L325.017 82.8821C324.979 82.8821 324.941 82.8821 324.902 82.9204C324.864 82.9204 324.826 82.9204 324.826 82.9586L324.749 82.9969L324.711 83.1117C324.673 83.1117 324.673 83.1117 324.634 83.1117L324.481 83.15L324.328 83.4562L324.367 83.5328C324.405 83.6093 324.405 83.6858 324.405 83.7624C324.405 83.8772 324.443 83.992 324.52 84.1451C324.481 84.2217 324.443 84.2982 324.405 84.4131V84.5661L324.826 84.7958Z" fill="#3E5403"/>
<path d="M327.198 75.1124C327.351 75.0741 327.466 74.921 327.504 74.7679L327.543 74.6531L327.275 74.3852H327.236C327.198 74.3469 327.045 74.2321 326.854 74.2703H326.777L326.548 74.5382V74.6148C326.548 74.7679 326.662 74.921 326.777 75.0358C326.93 75.1124 327.045 75.1506 327.198 75.1124Z" fill="#3E5403"/>
<path d="M315.641 92.7953L315.679 92.8336L315.909 92.9101L316.215 92.8719L316.291 92.7188C316.368 92.6805 316.445 92.6039 316.483 92.5274C316.559 92.4508 316.636 92.336 316.636 92.2212V92.0681L316.406 91.8767C316.406 91.915 316.445 91.915 316.445 91.915C316.445 91.915 316.445 91.8767 316.406 91.8384C316.291 91.4557 316.062 91.4174 315.909 91.4174C315.717 91.4557 315.603 91.6088 315.564 91.6471L315.488 91.7619V91.8002L315.449 91.8767V91.915L315.335 92.0681L315.373 92.4508C315.488 92.6422 315.603 92.7187 315.641 92.7953Z" fill="#3E5403"/>
<path d="M307.832 78.8636L307.756 78.787C307.756 78.5191 307.564 78.4043 307.488 78.366L307.411 78.3277L307.258 78.366L307.028 78.4808L306.99 78.5191C306.952 78.5191 306.914 78.5191 306.914 78.5574V78.5957L306.875 78.5574C306.76 78.6339 306.684 78.7105 306.646 78.8636V78.9018C306.416 79.0167 306.416 79.208 306.378 79.2846V79.3611L306.416 79.4377C306.378 79.5142 306.378 79.5908 306.378 79.6673L306.339 79.7056L306.301 79.897L306.378 80.3563L306.722 80.5859L306.837 80.5476C306.875 80.5476 306.875 80.5476 306.914 80.5476C306.99 80.5476 307.028 80.5476 307.105 80.5476C307.22 80.5476 307.296 80.5094 307.411 80.4328L307.449 80.3945L307.564 80.1649V80.0883C307.564 80.0118 307.564 79.9352 307.564 79.897C307.679 79.8587 307.794 79.7439 307.832 79.6291C307.87 79.5525 307.87 79.3611 307.717 79.1698L307.794 79.0549L307.832 78.8636Z" fill="#3E5403"/>
<path d="M317.63 79.9354L317.706 79.8971L317.63 79.9737L317.783 80.165H317.859C317.936 80.165 317.974 80.165 318.051 80.165C318.127 80.165 318.242 80.1268 318.28 80.0502H318.319L318.395 80.0119C318.433 80.0119 318.472 79.9737 318.472 79.9737C318.548 79.9354 318.625 79.8971 318.663 79.8588L318.701 79.8206V79.744L318.931 79.5144V79.4761V79.4378C318.969 79.3613 319.084 79.1699 318.969 78.9403C318.893 78.8254 318.778 78.7106 318.625 78.7106H318.51L318.472 78.6341H318.357C318.319 78.6341 318.319 78.6341 318.28 78.6341C318.204 78.5193 318.051 78.481 317.936 78.5193C317.859 78.5193 317.744 78.5575 317.63 78.7489L317.438 78.7872L317.477 79.0934C317.438 79.1699 317.4 79.2847 317.477 79.4378L317.362 79.5527L317.63 79.9354Z" fill="#3E5403"/>
<path d="M305.879 93.9436L305.918 93.8288L305.573 93.5992L305.42 93.5226L305.344 93.5609C305.229 93.5226 305.114 93.4461 304.884 93.4843C304.846 93.4843 304.77 93.5226 304.731 93.5226H304.693L304.578 93.5992L304.54 93.6374C304.387 93.6757 304.195 93.7905 304.195 94.0585L304.119 94.1733L304.157 94.2881C304.234 94.4412 304.31 94.6326 304.387 94.7474C304.425 94.7857 304.463 94.8239 304.463 94.8622L304.502 95.0153L304.923 95.0919V95.0153V95.1301H304.961C304.999 95.1301 305.037 95.1301 305.114 95.1301C304.961 95.1684 304.846 95.2449 304.808 95.2832H304.77L304.54 95.5511V95.6277C304.54 96.0487 304.808 96.2401 305.076 96.2018H305.229L305.267 96.087H305.305H305.344L305.535 95.9339L305.573 95.8956C305.65 95.7808 305.65 95.666 305.612 95.5511C305.65 95.398 305.573 95.2832 305.535 95.2449L305.497 95.2067L305.267 95.0919H305.191C305.229 95.0919 305.267 95.0918 305.305 95.0536C305.42 95.0153 305.497 94.9388 305.535 94.8622C305.65 94.8622 305.765 94.7857 305.841 94.7091L305.879 94.6708L305.918 94.5943V94.556C306.071 94.2881 305.956 94.0584 305.879 93.9436C305.918 93.9436 305.879 93.9436 305.879 93.9436Z" fill="#3E5403"/>
<path d="M299.642 100.757C299.566 100.68 299.412 100.489 299.106 100.527L298.953 100.565L298.762 100.91L298.8 101.025C298.838 101.139 298.838 101.254 298.877 101.331C298.877 101.484 298.915 101.599 298.991 101.79L299.03 101.867L299.298 102.02H299.374C299.68 101.981 299.833 101.752 299.833 101.331C299.833 101.292 299.833 101.292 299.833 101.254L299.872 101.178L299.642 100.757Z" fill="#3E5403"/>
<path d="M325.017 99.034C324.979 98.9191 324.902 98.7278 324.673 98.613L324.52 98.5364L324.137 98.9191L324.175 99.034V99.0722C324.175 99.1871 324.175 99.3784 324.367 99.4933C324.481 99.5698 324.596 99.6081 324.711 99.5698C324.749 99.5698 324.826 99.5315 324.864 99.5315L324.941 99.4933L325.056 99.1105L325.017 99.034C325.017 99.0722 325.017 99.034 325.017 99.034Z" fill="#3E5403"/>
<path d="M324.177 87.3606C323.909 87.2075 323.641 87.1309 323.373 87.1692C323.143 87.2075 322.914 87.3223 322.761 87.5137L322.646 87.6668L322.837 88.0112H322.799C322.799 87.973 322.761 87.973 322.761 87.973C322.761 88.0112 322.761 88.0112 322.799 88.0495C322.837 88.2026 322.914 88.4705 323.143 88.6236H323.182L323.335 88.6619H323.373C323.488 88.6619 323.526 88.6619 323.603 88.6619C323.679 88.6619 323.717 88.6619 323.794 88.6619C323.909 88.6619 323.985 88.6236 324.1 88.5471L324.177 88.5088L324.33 88.2026L324.292 88.1261C324.253 87.973 324.253 87.8581 324.292 87.7433V87.6668L324.177 87.3989V87.3606Z" fill="#3E5403"/>
<path d="M321.572 87.5519C321.572 87.5519 321.533 87.5519 321.533 87.5136C321.495 87.4753 321.419 87.4753 321.342 87.437L321.227 87.3988L320.959 87.6667C320.806 87.7432 320.73 87.8963 320.691 88.0494L320.615 88.0877L320.577 88.1642C320.462 88.3939 320.615 88.5852 320.653 88.6618L320.691 88.7383L320.959 88.8532H321.036C321.151 88.8149 321.265 88.7766 321.342 88.7001H321.572L321.648 88.6235C321.801 88.4704 321.84 88.2791 321.84 88.126C321.84 88.0877 321.84 88.0494 321.84 88.0494L321.878 87.9346L321.686 87.5519H321.572Z" fill="#3E5403"/>
</g>
<path d="M425.387 -13V83.7711C425.387 86.4563 423.321 88.6251 420.774 88.6251H267.613C265.066 88.6251 263 86.4563 263 83.7711V-13H425.387Z" fill="#003C4F"/>
<path d="M421 -12V71H269V-12H421Z" fill="#D9DFE2"/>
<path d="M365 115H326V87H365V115Z" fill="#003C4F"/>
<path d="M421 62V77.3539C421 79.3795 419.663 81 417.992 81H272.141C270.47 81 269.133 79.3795 269.133 77.3945L269 62H421Z" fill="#335165"/>
<path d="M281.302 13.477H203.672C201.657 13.477 200 11.8194 200 9.77918V-8.32763C200 -10.3423 201.657 -12 203.672 -12H281.302C283.342 -12 284.974 -10.3423 284.974 -8.32763V9.77918C285 11.8194 283.342 13.477 281.302 13.477Z" fill="#F05559"/>
<path opacity="0.7" d="M219.434 2.21722C219.434 6.19562 216.195 9.43444 212.217 9.43444C208.239 9.43444 205 6.19562 205 2.21722C205 -1.76118 208.239 -5 212.217 -5C216.195 -4.9745 219.434 -1.76118 219.434 2.21722Z" fill="#FFE7EE"/>
<path d="M226.548 7.17784H224.916V-2.69165H226.548V7.17784Z" fill="#FF7073"/>
<path d="M236.392 7.17784H234.76V-2.69165H236.392V7.17784Z" fill="#FF7073"/>
<path d="M265.949 7.17784H264.317V-2.69165H265.949V7.17784Z" fill="#FF7073"/>
<path d="M242.972 7.17787H241.34V-0.141357H242.972V7.17787Z" fill="#FF7073"/>
<path d="M246.236 7.178H244.604V0.776855H246.236V7.178Z" fill="#FF7073"/>
<path d="M262.659 7.178H261.027V0.776855H262.659V7.178Z" fill="#FF7073"/>
<path d="M272.504 7.178H270.872V0.776855H272.504V7.178Z" fill="#FF7073"/>
<path d="M239.682 7.17796H238.05V-4.83374H239.682V7.17796Z" fill="#FF7073"/>
<path d="M249.525 7.17796H247.893V-4.83374H249.525V7.17796Z" fill="#FF7073"/>
<path d="M259.37 7.17796H257.738V-4.83374H259.37V7.17796Z" fill="#FF7073"/>
<path d="M275.793 7.17796H274.161V-4.83374H275.793V7.17796Z" fill="#FF7073"/>
<path d="M256.106 7.17802H254.473V-6.51685H256.106V7.17802Z" fill="#FF7073"/>
<path d="M252.816 7.17796H251.183V-4.83374H252.816V7.17796Z" fill="#FF7073"/>
<path d="M229.838 7.17796H228.206V0.0627441H229.838V7.17796Z" fill="#FF7073"/>
<path d="M233.103 7.17786H231.47V3.19946H233.103V7.17786Z" fill="#FF7073"/>
<path d="M269.239 7.17786H267.607V3.19946H269.239V7.17786Z" fill="#FF7073"/>
<path d="M193.518 -5.6204L190.072 -6.55047L188.387 -13L187.203 -6.35226L184.001 -5.6204L187.659 -4.43112L188.767 0.737644L189.86 -4.43112L193.518 -5.6204Z" fill="#D3FEE6" fill-opacity="0.3"/>
<path d="M316.502 100.38L313.057 99.4495L311.387 93L310.203 99.663L307 100.38L310.658 101.569L311.751 106.738L312.844 101.569L316.502 100.38Z" fill="#D3FEE6" fill-opacity="0.3"/>
<path d="M210.48 1.23876C210.48 0.956976 210.474 0.673275 210.483 0.391492C210.497 -0.103067 210.731 -0.488363 211.171 -0.764396C211.488 -0.963753 211.844 -1.0366 212.218 -0.982922C212.732 -0.91008 213.114 -0.653216 213.359 -0.223832C213.476 -0.0187238 213.527 0.201719 213.527 0.433663C213.527 0.983813 213.533 1.53588 213.525 2.08603C213.515 2.59592 213.268 2.9908 212.81 3.26684C212.489 3.46044 212.133 3.5237 211.757 3.46236C211.167 3.36268 210.77 3.04256 210.563 2.51925C210.505 2.37356 210.48 2.22021 210.48 2.06302C210.478 1.78891 210.478 1.51479 210.48 1.23876C210.478 1.23876 210.48 1.23876 210.48 1.23876Z" fill="#F05559"/>
<path d="M211.531 5.24321C211.531 5.13012 211.529 5.01702 211.531 4.90392C211.531 4.86559 211.519 4.85025 211.478 4.8445C210.92 4.75441 210.433 4.53205 210.012 4.18317C209.633 3.87072 209.354 3.49117 209.181 3.04453C209.062 2.73591 209 2.41771 209 2.088C209 1.87714 209.169 1.68737 209.376 1.65862C209.658 1.61836 209.853 1.76788 209.919 1.96149C209.938 2.01324 209.94 2.07075 209.942 2.12634C209.956 2.66307 210.176 3.11738 210.591 3.48734C210.861 3.72695 211.181 3.88605 211.547 3.96273C211.88 4.03174 212.209 4.02982 212.536 3.94356C213.169 3.77679 213.62 3.41066 213.889 2.85284C214.004 2.61707 214.058 2.36979 214.058 2.10909C214.058 1.93848 214.132 1.80239 214.29 1.71229C214.442 1.62795 214.602 1.62795 214.755 1.70271C214.909 1.77938 214.995 1.9059 214.999 2.07075C215.007 2.3142 214.968 2.55381 214.903 2.78959C214.802 3.15188 214.631 3.4835 214.387 3.78062C214.064 4.1755 213.657 4.47262 213.165 4.66623C212.958 4.74866 212.746 4.81 212.524 4.84258C212.485 4.84833 212.468 4.86175 212.468 4.90201C212.47 5.11478 212.47 5.32756 212.47 5.53842C212.47 5.75503 212.345 5.92371 212.123 5.98314C211.874 6.05023 211.613 5.91221 211.547 5.67643C211.533 5.62276 211.529 5.56717 211.527 5.51158C211.527 5.42149 211.529 5.33331 211.531 5.24321C211.529 5.24321 211.531 5.24321 211.531 5.24321Z" fill="#F05559"/>
<path d="M238 27.8346L235.828 27.2253L234.766 23L234.019 27.3552L232 27.8346L234.306 28.6138L235.005 32L235.694 28.6138L238 27.8346Z" fill="#D3FEE6" fill-opacity="0.3"/>
<path d="M292.161 24.9746H253.839C243.989 24.9746 236 32.9347 236 42.7502V55.199C236 65.0145 243.989 72.9746 253.839 72.9746H255.185H262.363H270.945H292.161C302.011 72.9746 310 65.0145 310 55.199V42.7502C310.06 32.9347 302.071 24.9746 292.161 24.9746Z" fill="#FFCAB2"/>
<path d="M273.068 43.1675V51.6175C268.436 51.6175 267.502 56.0215 274.792 56.8092" stroke="#00304F" stroke-width="0.971914" stroke-miterlimit="10" stroke-linecap="round" stroke-linejoin="round"/>
<path d="M287.899 43.4538C287.899 44.886 287.253 46.0317 286.463 46.0317C285.673 46.0317 285.027 44.886 285.027 43.4538C285.027 42.0216 285.673 40.8758 286.463 40.8758C287.253 40.84 287.899 42.0216 287.899 43.4538Z" fill="#00304F"/>
<path d="M263.156 43.4538C263.156 44.886 262.51 46.0317 261.72 46.0317C260.93 46.0317 260.283 44.886 260.283 43.4538C260.283 42.0216 260.93 40.8758 261.72 40.8758C262.51 40.84 263.156 42.0216 263.156 43.4538Z" fill="#00304F"/>
<path d="M285.349 37.4027C285.385 37.4027 285.421 37.4027 285.457 37.4027C286.534 37.4027 287.612 37.5459 288.689 37.7249C289.371 37.8681 290.09 38.0471 290.808 38.0113C292.424 37.9039 293.286 36.4001 292.567 34.9679C291.885 33.6073 289.479 32.8554 288.15 32.4974C285.996 31.9245 282.512 31.6022 280.537 32.927C278.239 34.4666 279.891 36.8656 282.333 37.2952C283.338 37.4743 284.344 37.4027 285.349 37.4027Z" fill="#00304F"/>
<path d="M262.474 37.4027C262.438 37.4027 262.402 37.4027 262.366 37.4027C261.289 37.4027 260.211 37.5459 259.134 37.7249C258.452 37.8681 257.734 38.0471 257.015 38.0113C255.399 37.9039 254.538 36.4001 255.256 34.9679C255.974 33.6073 258.38 32.8554 259.709 32.4974C261.863 31.9245 265.347 31.6022 267.322 32.927C269.62 34.4666 267.968 36.8656 265.526 37.2952C264.521 37.4743 263.515 37.4027 262.474 37.4027Z" fill="#00304F"/>
<path d="M274.617 61.9432C275.95 61.8313 277.306 61.1288 278.562 61.572C280.009 62.0699 280.597 63.9898 280.007 65.4067C279.417 66.8236 277.981 67.6988 276.498 68.0867C273.741 68.7784 268.952 67.6608 268.24 64.3663C267.296 60.078 272.353 62.1379 274.617 61.9432Z" fill="#FBFBFB"/>
<path d="M322.265 26.5365L299 32.4747L305.605 46.9403L322.265 26.5365Z" fill="#FFCAB2"/>
</g>
<defs>
<clipPath id="clip0">
<rect width="327" height="104" fill="white"/>
</clipPath>
</defs>
</svg>
