<svg width="327" height="104" viewBox="0 0 327 104" fill="none" xmlns="http://www.w3.org/2000/svg">
<g clip-path="url(#clip0)">
<rect width="327" height="104" fill="#2274A5"/>
<path opacity="0.7" d="M288.691 96.9392C277.974 96.9392 269.33 88.3321 269.33 77.6997C269.33 67.0285 277.974 58.4213 288.691 58.4213C299.369 58.4213 308.052 67.0285 308.052 77.6997C308.013 88.3321 299.369 96.9392 288.691 96.9392Z" fill="#001322"/>
<g clip-path="url(#clip1)">
<path d="M287.096 95.3343C276.815 95.3343 268.522 87.0858 268.522 76.8965C268.522 66.6698 276.815 58.4213 287.096 58.4213C297.339 58.4213 305.669 66.6698 305.669 76.8965C305.631 87.0858 297.339 95.3343 287.096 95.3343Z" fill="#D9DFE2"/>
<g clip-path="url(#clip2)">
<path d="M277.825 69.6265V84.2067C277.825 87.0517 281.257 88.7586 283.903 87.1939L296.987 79.157C299.418 77.6634 299.275 74.3206 296.701 72.9693L283.545 66.4971C280.971 65.2168 277.825 66.9238 277.825 69.6265Z" fill="#A80030"/>
</g>
</g>
<path d="M278.822 45.3356H174.794C170.99 45.3356 167.93 42.2921 167.93 38.5083V-20.8398C167.93 -24.6236 170.99 -27.6671 174.794 -27.6671H278.822C282.626 -27.6671 285.686 -24.6236 285.686 -20.8398V38.5083C285.644 42.2921 282.585 45.3356 278.822 45.3356Z" stroke="#335165" stroke-width="0.427581" stroke-miterlimit="10"/>
<g clip-path="url(#clip3)">
<path d="M168.354 21.5263C161.732 21.5263 156.391 16.2131 156.391 9.64988C156.391 3.06257 161.732 -2.25055 168.354 -2.25055C174.953 -2.25055 180.318 3.06257 180.318 9.64988C180.294 16.2131 174.953 21.5263 168.354 21.5263Z" fill="#D9DFE2"/>
<g clip-path="url(#clip4)">
<path d="M165.858 15.1442H164.872C164.324 15.1442 163.849 14.7138 163.849 14.1398V5.13585C163.849 4.59776 164.287 4.13142 164.872 4.13142H165.858C166.406 4.13142 166.881 4.56189 166.881 5.13585V14.1398C166.845 14.6779 166.406 15.1442 165.858 15.1442Z" fill="#B91E44" fill-opacity="0.75"/>
<path d="M171.777 15.1442H170.791C170.243 15.1442 169.768 14.7138 169.768 14.1398V5.13585C169.768 4.59776 170.206 4.13142 170.791 4.13142H171.777C172.325 4.13142 172.8 4.56189 172.8 5.13585V14.1398C172.8 14.6779 172.362 15.1442 171.777 15.1442Z" fill="#B91E44" fill-opacity="0.75"/>
</g>
</g>
<path d="M408.123 136H250.841C245.09 136 240.464 131.398 240.464 125.678V35.948C240.464 30.2272 245.09 25.6257 250.841 25.6257H408.123C413.874 25.6257 418.5 30.2272 418.5 35.948V125.678C418.437 131.398 413.812 136 408.123 136Z" stroke="#335165" stroke-width="0.646467" stroke-miterlimit="10"/>
<path d="M250.841 25.9966H408.123C413.602 25.9966 418.129 30.5354 418.129 36.1907V39.193H240.835V36.1907C240.835 30.5339 245.301 25.9966 250.841 25.9966Z" fill="#335165" stroke="#335165" stroke-width="0.741777"/>
<path d="M264.532 32.7146C264.532 33.896 263.594 34.8288 262.406 34.8288C261.218 34.8288 260.281 33.896 260.281 32.7146C260.281 31.5331 261.218 30.6004 262.406 30.6004C263.594 30.6626 264.532 31.5953 264.532 32.7146Z" fill="#B91E44" fill-opacity="0.7"/>
<path d="M273.095 32.7146C273.095 33.896 272.158 34.8288 270.97 34.8288C269.782 34.8288 268.844 33.896 268.844 32.7146C268.844 31.5331 269.782 30.6004 270.97 30.6004C272.158 30.6004 273.095 31.5953 273.095 32.7146Z" fill="#D9DFE2"/>
<path d="M255.967 32.7146C255.967 33.896 255.029 34.8288 253.841 34.8288C252.654 34.8288 251.716 33.896 251.716 32.7146C251.716 31.5331 252.654 30.6004 253.841 30.6004C255.029 30.6626 255.967 31.5953 255.967 32.7146Z" fill="#001C30"/>
<path d="M240.464 39.1816H418.437" stroke="#335165" stroke-width="0.646467" stroke-miterlimit="10"/>
<path d="M251.128 12.6875L251.034 12.4191H250.75H244.655C239.374 12.4191 235.094 8.127 235.094 2.82459C235.094 -2.47782 239.374 -6.76989 244.655 -6.76989H251.933C257.214 -6.76989 261.494 -2.47782 261.494 2.82459C261.494 7.59884 258.001 11.5426 253.46 12.2874L253.231 12.3251L253.15 12.5431L252.081 15.4246L251.128 12.6875Z" stroke="#001C30" stroke-width="0.8"/>
<path d="M207.785 15.5536H214.621C219.791 15.5536 223.979 19.7176 223.979 24.8589C223.979 30.0001 219.791 34.1641 214.621 34.1641H208.896L207.657 37.6907L206.289 34.0366C201.846 33.3143 198.427 29.4902 198.427 24.8589C198.427 19.7176 202.615 15.5536 207.785 15.5536Z" fill="#335165"/>
</g>
<defs>
<clipPath id="clip0">
<rect width="327" height="104" fill="white"/>
</clipPath>
<clipPath id="clip1">
<rect width="37.1089" height="36.9129" fill="white" transform="translate(268.522 58.4213)"/>
</clipPath>
<clipPath id="clip2">
<rect width="21.7362" height="22.546" fill="white" transform="translate(277.395 65.6432)"/>
</clipPath>
<clipPath id="clip3">
<rect width="23.903" height="23.7768" fill="white" transform="translate(156.391 -2.25055)"/>
</clipPath>
<clipPath id="clip4">
<rect width="9.35336" height="11.3715" fill="white" transform="translate(163.665 3.9521)"/>
</clipPath>
</defs>
</svg>
