<svg width="24" height="17" viewBox="0 0 24 17" fill="none" xmlns="http://www.w3.org/2000/svg">
  <path fill-rule="evenodd" clip-rule="evenodd" d="M15.24 5.0354C15.9251 5.0354 16.475 5.19026 16.8246 5.33227L16.5851 6.86613L16.4263 6.78525C16.1001 6.64147 15.6813 6.50374 15.1029 6.51336C14.4103 6.51336 14.0902 6.8282 14.0898 7.12224C14.0855 7.45432 14.4648 7.67167 15.0828 7.99978C16.1033 8.50448 16.5745 9.11577 16.5681 9.92225C16.554 11.3905 15.3466 12.3391 13.4885 12.3391C12.6952 12.3301 11.9307 12.159 11.5184 11.962L11.7657 10.3782L11.9931 10.4908C12.5747 10.755 12.9509 10.8619 13.6589 10.8619C14.1673 10.8619 14.7126 10.6447 14.7173 10.1708C14.7201 9.86102 14.4885 9.63928 13.7995 9.29278C13.129 8.95475 12.2396 8.38756 12.2508 7.37052C12.261 5.99559 13.4917 5.0354 15.24 5.0354ZM9.748 5.15854L8.6417 12.2341H10.4102L11.5164 5.15854H9.748ZM19.1793 9.72558C19.3259 9.31889 19.8838 7.74782 19.8838 7.74782C19.8789 7.7566 19.9107 7.66684 19.9551 7.54168L19.9552 7.54148L19.9552 7.54142C20.0053 7.39998 20.0715 7.21343 20.1188 7.0728L20.2382 7.68304C20.2382 7.68304 20.5775 9.37186 20.6474 9.72558H19.1793ZM21.361 5.16584H19.9944C19.5705 5.16584 19.2532 5.29102 19.0675 5.75236L16.4413 12.2367H18.2987C18.2987 12.2367 18.6017 11.3644 18.6705 11.173C18.7657 11.173 19.2149 11.1738 19.691 11.1746C20.2278 11.1756 20.799 11.1766 20.9355 11.1766C20.9885 11.4235 21.1508 12.2367 21.1508 12.2367H22.7922L21.361 5.16584ZM5.42731 9.98842L7.15817 5.16458H9.03215L6.24728 12.2269L4.37573 12.228L2.79224 6.03992C3.91533 6.65351 4.91937 7.87807 5.24192 9.00786L5.42731 9.98842Z" fill="#26337A"/>
  <path fill-rule="evenodd" clip-rule="evenodd" d="M3.7903 5.15601H1.02277L1 5.29828C3.15346 5.86708 4.5783 7.24005 5.1697 8.89047L4.56829 5.73535C4.46454 5.30021 4.163 5.17122 3.7903 5.15601Z" fill="#EC982D"/>
</svg>
