<svg width="25" height="17" viewBox="0 0 25 17" fill="none" xmlns="http://www.w3.org/2000/svg">
<path d="M14.8385 4.05713H9.43066V13.7751H14.8385V4.05713Z" fill="#FF5F00"/>
<path d="M9.77311 8.91568C9.77226 7.97978 9.98434 7.05594 10.3933 6.21411C10.8023 5.37228 11.3974 4.63453 12.1336 4.05671C11.2219 3.34007 10.127 2.89441 8.97391 2.77065C7.82088 2.64689 6.65628 2.85003 5.61324 3.35687C4.5702 3.8637 3.6908 4.65377 3.07555 5.63676C2.4603 6.61976 2.13403 7.75602 2.13403 8.91568C2.13403 10.0753 2.4603 11.2116 3.07555 12.1946C3.6908 13.1776 4.5702 13.9677 5.61324 14.4745C6.65628 14.9813 7.82088 15.1845 8.97391 15.0607C10.127 14.937 11.2219 14.4913 12.1336 13.7747C11.3974 13.1968 10.8023 12.4591 10.3933 11.6173C9.98435 10.7754 9.77226 9.85159 9.77311 8.91568Z" fill="#EB001B"/>
<path d="M22.1341 8.91568C22.1341 10.0753 21.8079 11.2116 21.1927 12.1946C20.5774 13.1776 19.6981 13.9676 18.655 14.4745C17.612 14.9813 16.4474 15.1845 15.2944 15.0607C14.1414 14.937 13.0465 14.4913 12.1348 13.7747C12.8704 13.1962 13.465 12.4584 13.8739 11.6167C14.2828 10.775 14.4953 9.85144 14.4953 8.91568C14.4953 7.97992 14.2828 7.05637 13.8739 6.21468C13.465 5.37299 12.8704 4.63512 12.1348 4.05671C13.0465 3.34007 14.1414 2.8944 15.2944 2.77065C16.4474 2.64689 17.612 2.85004 18.655 3.35688C19.6981 3.86372 20.5774 4.65379 21.1927 5.63678C21.8079 6.61978 22.1341 7.75604 22.1341 8.91568Z" fill="#F79E1B"/>
<path d="M21.5443 12.7467V12.5478H21.6245V12.5072H21.4202V12.5478H21.5004V12.7467H21.5443ZM21.9409 12.7467V12.5068H21.8783L21.8063 12.6718L21.7342 12.5068H21.6715V12.7467H21.7158V12.5658L21.7833 12.7218H21.8292L21.8967 12.5654V12.7467H21.9409Z" fill="#F79E1B"/>
</svg>
