<svg width="49" height="48" viewBox="0 0 49 48" fill="none" xmlns="http://www.w3.org/2000/svg">
  <g clip-path="url(#clip0)">
  <path d="M0.5 8C0.5 3.58172 4.08172 0 8.5 0H40.5C44.9183 0 48.5 3.58172 48.5 8V40C48.5 44.4183 44.9183 48 40.5 48H8.5C4.08172 48 0.5 44.4183 0.5 40V8Z" fill="#F2F4F5"/>
  <path d="M25.0662 33.2712C23.1691 35.2755 20.4834 36.5258 17.5058 36.5258H14.4215L14.4416 36.5771L8.0718 42.9468C7.70409 43.3145 7.07555 43.0541 7.07555 42.5341V37.1092C7.07555 36.7868 6.8142 36.5256 6.492 36.5256H5.90844C0.160069 36.5256 -4.5 31.8656 -4.5 26.1172C-4.5 20.3688 0.160069 15.7087 5.90844 15.7087H9.83623L25.0662 33.2712Z" fill="#00263E"/>
  <path d="M32.4706 9H19.8377C13.5761 9 8.5 14.0761 8.5 20.3377C8.5 26.5994 13.5761 31.6757 19.8379 31.6757H23.1975L23.1755 31.7316L30.2945 38.8506C30.6284 39.1845 31.1992 38.948 31.1992 38.4759V32.2057C31.1992 31.9129 31.4365 31.6757 31.7292 31.6757H32.4706C38.7322 31.6757 43.8083 26.5996 43.8083 20.3379C43.8085 14.0761 38.7322 9 32.4706 9Z" fill="#FE7C40"/>
  <path d="M32.4706 9H19.8377C13.5761 9 8.5 14.0761 8.5 20.3377C8.5 26.5994 13.5761 31.6757 19.8379 31.6757H23.1975L23.1755 31.7316L30.2945 38.8506C30.6284 39.1845 31.1992 38.948 31.1992 38.4759V32.2057C31.1992 31.9129 31.4365 31.6757 31.7292 31.6757H32.4706C38.7322 31.6757 43.8083 26.5996 43.8083 20.3379C43.8085 14.0761 38.7322 9 32.4706 9Z" fill="url(#paint0_linear)"/>
  <path d="M18.7392 22.9133C19.893 22.9133 20.8283 21.978 20.8283 20.8242C20.8283 19.6704 19.893 18.7351 18.7392 18.7351C17.5855 18.7351 16.6501 19.6704 16.6501 20.8242C16.6501 21.978 17.5855 22.9133 18.7392 22.9133Z" fill="white"/>
  <path d="M26.5049 22.9133C27.6586 22.9133 28.5939 21.978 28.5939 20.8242C28.5939 19.6704 27.6586 18.7351 26.5049 18.7351C25.3511 18.7351 24.4158 19.6704 24.4158 20.8242C24.4158 21.978 25.3511 22.9133 26.5049 22.9133Z" fill="white"/>
  <path d="M34.271 22.9133C35.4247 22.9133 36.36 21.978 36.36 20.8242C36.36 19.6704 35.4247 18.7351 34.271 18.7351C33.1172 18.7351 32.1819 19.6704 32.1819 20.8242C32.1819 21.978 33.1172 22.9133 34.271 22.9133Z" fill="white"/>
  </g>
  <defs>
  <linearGradient id="paint0_linear" x1="26.1541" y1="39.0069" x2="26.1541" y2="8.99999" gradientUnits="userSpaceOnUse">
  <stop stop-color="#FF4D4D" stop-opacity="0.4"/>
  <stop offset="1" stop-color="#FF4D4D" stop-opacity="0"/>
  </linearGradient>
  <clipPath id="clip0">
  <path d="M0.5 8C0.5 3.58172 4.08172 0 8.5 0H40.5C44.9183 0 48.5 3.58172 48.5 8V40C48.5 44.4183 44.9183 48 40.5 48H8.5C4.08172 48 0.5 44.4183 0.5 40V8Z" fill="white"/>
  </clipPath>
  </defs>
</svg>
