<svg width="49" height="49" viewBox="0 0 49 49" fill="none" xmlns="http://www.w3.org/2000/svg">
  <g clip-path="url(#clip0)">
  <path d="M0.5 8.00342C0.5 3.58514 4.08172 0.00341797 8.5 0.00341797H40.5C44.9183 0.00341797 48.5 3.58514 48.5 8.00342V40.0034C48.5 44.4217 44.9183 48.0034 40.5 48.0034H8.5C4.08172 48.0034 0.5 44.4217 0.5 40.0034V8.00342Z" fill="#F2F4F5"/>
  <path d="M32.0799 49.2726V40.2421C32.0799 39.5286 32.4426 38.8662 33.0398 38.4756C37.431 35.604 41.3597 31.0701 41.7794 25.6851C42.9382 10.8211 28.4889 2.77209 16.7512 10.8524C16.7512 10.8524 8.08329 16.8948 7.90849 30.1012C7.90464 30.3954 8.14148 30.637 8.4357 30.637H11.7707C11.7707 30.637 11.0286 40.5028 12.7469 41.4055C13.5142 41.8085 15.5353 41.9999 17.6048 41.8517V49.2726H32.0799Z" fill="#FE7C40"/>
  <path d="M41.7076 26.3631C41.3385 29.1242 40.0548 31.6465 38.2865 33.8156L35.3374 31.3443C34.9208 30.9956 34.811 30.4012 35.0747 29.9269L36.5068 27.348L27.4842 15.0106L25.9774 17.7366C26.6351 18.3831 27.1683 19.1563 27.5362 20.0155C27.9053 20.8759 28.1091 21.8235 28.1091 22.8174C28.1091 26.7537 24.9189 29.9439 20.9826 29.9439H7.91162C8.02596 23.7593 10.0014 19.1585 12.0573 16.0261C12.6641 15.8087 13.3162 15.6921 13.9898 15.6921H17.8841C19.2528 12.3966 22.5041 7.78225 28.4691 8.32452C29.1834 8.38905 29.6532 9.10226 29.4404 9.78717L29.1664 10.6679C28.8947 11.543 29.06 12.4962 29.6102 13.2298L36.7163 22.7019C37.9842 24.3921 39.7231 25.6646 41.7076 26.3631Z" fill="#FE5000"/>
  <path d="M32.0799 49.2726V40.2421C32.0799 39.5286 32.4426 38.8662 33.0398 38.4756C37.431 35.604 41.3597 31.0701 41.7794 25.6851C42.9382 10.8211 28.4889 2.77209 16.7512 10.8524C16.7512 10.8524 8.08329 16.8948 7.90849 30.1012C7.90464 30.3954 8.14148 30.637 8.4357 30.637H11.7707C11.7707 30.637 11.0286 40.5028 12.7469 41.4055C13.5142 41.8085 15.5353 41.9999 17.6048 41.8517V49.2726H32.0799Z" fill="url(#paint0_linear)"/>
  <path d="M42.3522 24.29C42.8461 24.4296 43.1843 24.883 43.1765 25.3963C43.1533 26.9231 42.8645 30.1161 41.0058 32.3397C40.6049 32.8192 39.8898 32.881 39.4107 32.4796L35.3373 29.0667C34.9213 28.7183 34.8112 28.1237 35.0746 27.6493L36.5068 25.0702L27.4841 12.7334L25.5054 16.3155H17.0913C17.0913 14.6216 20.1248 5.28908 28.4698 6.04712C29.184 6.11199 29.6532 6.82531 29.4405 7.5101L29.167 8.39041C28.8949 9.26619 29.0599 10.2193 29.6102 10.9528L36.7161 20.424C38.1204 22.2956 40.1006 23.6539 42.3522 24.29Z" fill="#FBFBFB"/>
  <path d="M8.44325 17.6407C7.64072 20.5573 6.64619 24.2515 6.11207 26.2413C5.91905 26.9604 6.46098 27.6665 7.20555 27.6665H20.983C24.9186 27.6665 28.1091 24.4761 28.1091 20.5404C28.1091 16.6047 24.9186 13.4143 20.983 13.4143H13.9895C11.4001 13.4142 9.13031 15.144 8.44325 17.6407Z" fill="#FBFBFB"/>
  <path d="M24.5018 12.6737C24.9295 12.6737 25.2762 12.3269 25.2762 11.8992C25.2762 11.4715 24.9295 11.1248 24.5018 11.1248C24.074 11.1248 23.7273 11.4715 23.7273 11.8992C23.7273 12.3269 24.074 12.6737 24.5018 12.6737Z" fill="#00263E"/>
  <path fill-rule="evenodd" clip-rule="evenodd" d="M25.8441 20.5408C25.8441 23.2215 23.6637 25.4019 20.983 25.4019H6.33838C6.89649 23.3211 7.74329 20.1853 8.44292 17.6404C8.64216 16.9136 8.97726 16.2513 9.41424 15.6785H20.983C23.6637 15.6785 25.8441 17.86 25.8441 20.5408ZM37.7915 28.734C38.2193 28.734 38.566 28.3872 38.566 27.9595C38.566 27.5318 38.2193 27.1851 37.7915 27.1851C37.3638 27.1851 37.0171 27.5318 37.0171 27.9595C37.0171 28.3872 37.3638 28.734 37.7915 28.734ZM40.5689 29.5046C40.5689 29.9323 40.2222 30.279 39.7945 30.279C39.3668 30.279 39.02 29.9323 39.02 29.5046C39.02 29.0768 39.3668 28.7301 39.7945 28.7301C40.2222 28.7301 40.5689 29.0768 40.5689 29.5046Z" fill="#00263E"/>
  <path opacity="0.4" d="M22.14 15.8175L12.5558 25.4017H10.397L20.1204 15.6782H20.983C21.3815 15.6782 21.7687 15.727 22.14 15.8175Z" fill="#D9DFE2"/>
  <path opacity="0.4" d="M25.4978 18.7395L18.8355 25.4018H13.9155L23.1352 16.1821C24.205 16.7119 25.0518 17.6245 25.4978 18.7395Z" fill="#D9DFE2"/>
  </g>
  <defs>
  <linearGradient id="paint0_linear" x1="24.8767" y1="49.2726" x2="24.8767" y2="7.65136" gradientUnits="userSpaceOnUse">
  <stop stop-color="#FF4D4D" stop-opacity="0.4"/>
  <stop offset="1" stop-color="#FF4D4D" stop-opacity="0"/>
  </linearGradient>
  <clipPath id="clip0">
  <path d="M0.5 8.00342C0.5 3.58514 4.08172 0.00341797 8.5 0.00341797H40.5C44.9183 0.00341797 48.5 3.58514 48.5 8.00342V40.0034C48.5 44.4217 44.9183 48.0034 40.5 48.0034H8.5C4.08172 48.0034 0.5 44.4217 0.5 40.0034V8.00342Z" fill="white"/>
  </clipPath>
  </defs>
</svg>
